<?xml version="1.0" encoding="UTF-8" standalone="no"?>
<svg width="880px" height="118px" viewBox="0 0 880 118" version="1.1" xmlns="http://www.w3.org/2000/svg" xmlns:xlink="http://www.w3.org/1999/xlink">
    <!-- Generator: Sketch 3.8.3 (29802) - http://www.bohemiancoding.com/sketch -->
    <title>installments copy</title>
    <desc>Created with Sketch.</desc>
    <defs></defs>
    <g id="Page-1" stroke="none" stroke-width="1" fill="none" fill-rule="evenodd">
        <path d="M15.8411758,114.534 C5.46021706,114.534 -1.5062625,106.244031 0.279106051,96.0292917 L10.2316825,39.087 L34.6350173,39.087 L21.144975,114.534 L15.8411758,114.534 Z M39.7885165,13.7865 C39.7885165,15.8065101 39.4348485,17.6749914 38.727502,19.392 C38.0201554,21.1090086 37.0349374,22.6492432 35.7718186,24.01275 C34.5086997,25.3762568 33.0182418,26.4367462 31.3004001,27.19425 C29.5825584,27.9517538 27.7131705,28.3305 25.6921803,28.3305 C21.8522989,28.3305 18.694549,27.1942614 16.218836,24.92175 C13.743123,22.6492386 12.5052851,19.7455177 12.5052851,16.2105 C12.5052851,12.0694793 13.894695,8.61026389 16.6735566,5.83275 C19.4524181,3.05523611 22.8627879,1.6665 26.9047683,1.6665 C30.6436002,1.6665 33.7255641,2.82798839 36.1507523,5.151 C38.5759406,7.47401162 39.7885165,10.3524828 39.7885165,13.7865 L39.7885165,13.7865 Z M76.4693055,49.995 C78.8944937,46.2579813 82.1280296,43.1775121 86.17001,40.7535 C90.2119904,38.3294879 94.8601982,37.1175 100.114773,37.1175 C104.358852,37.1175 107.99658,37.7234939 111.028065,38.9355 C114.059551,40.1475061 116.560488,41.8139894 118.530954,43.935 C120.501419,46.0560106 121.941353,48.5052361 122.850799,51.28275 C123.760245,54.0602639 124.21496,56.9639849 124.21496,59.994 C124.21496,61.4080071 124.164436,62.7967432 124.063387,64.16025 C123.962337,65.5237568 123.760241,66.8619934 123.457093,68.175 L115.272124,114.534 L91.0203622,114.534 L98.1443171,73.629 C98.6495647,71.3059884 98.9021846,69.1850096 98.9021846,67.266 C98.9021846,64.4379859 98.1695867,62.0392598 96.7043688,60.06975 C95.2391509,58.1002402 92.637165,57.1155 88.8983331,57.1155 C86.6752439,57.1155 84.679546,57.5447457 82.9111796,58.40325 C81.1428131,59.2617543 79.5765692,60.4484924 78.2124008,61.9635 C76.8482324,63.4785076 75.7367045,65.2459899 74.8777836,67.266 C74.0188628,69.2860101 73.3873128,71.4069889 72.9831148,73.629 L65.7075864,114.534 L41.4558251,114.534 L51.9143972,54.6915 C52.3185952,52.7724904 52.7480492,50.2980152 53.202772,47.268 C53.6574948,44.2379848 53.9859008,41.5110121 54.1879998,39.087 L77.3787465,39.087 C77.277697,40.2990061 77.100863,42.0159889 76.8482392,44.238 C76.5956155,46.4600111 76.3682575,48.3789919 76.1661584,49.995 L76.4693055,49.995 Z M143.464796,90.4455 C145.384737,93.2735141 147.936199,95.4197427 151.119258,96.88425 C154.302318,98.3487573 157.561116,99.081 160.895749,99.081 C164.129334,99.081 166.73132,98.4750061 168.701785,97.263 C170.672251,96.0509939 171.657468,94.3845106 171.657468,92.2635 C171.657468,90.2434899 170.748037,88.6780056 168.929145,87.567 C167.110254,86.4559944 164.432482,85.3450056 160.895749,84.234 C157.359017,83.223995 154.251791,82.0877563 151.573979,80.82525 C148.896167,79.5627437 146.647849,78.0982583 144.828958,76.43175 C143.010066,74.7652417 141.645918,72.8462609 140.736473,70.67475 C139.827027,68.5032391 139.372311,65.9530146 139.372311,63.024 C139.372311,58.8829793 140.307005,55.1965162 142.176421,51.9645 C144.045837,48.7324838 146.521513,45.9802614 149.603523,43.70775 C152.685533,41.4352386 156.297999,39.7182558 160.441029,38.55675 C164.584059,37.3952442 168.929123,36.8145 173.476351,36.8145 C179.337222,36.8145 184.819076,37.7992402 189.922076,39.76875 C195.025076,41.7382598 199.092258,44.6419808 202.123744,48.48 L186.814819,61.3575 C185.400126,59.3374899 183.454952,57.6710066 180.979239,56.358 C178.503526,55.0449934 175.547872,54.3885 172.112189,54.3885 C169.484902,54.3885 167.085012,54.893495 164.912447,55.9035 C162.739883,56.9135051 161.653617,58.6304879 161.653617,61.0545 C161.653617,62.7715086 162.462001,64.1097452 164.078793,65.06925 C165.695585,66.0287548 168.171261,66.9629955 171.505895,67.872 C178.579361,69.7910096 184.162262,72.4422331 188.254768,75.82575 C192.347273,79.2092669 194.393495,84.1329677 194.393495,90.597 C194.393495,95.1420227 193.408277,99.1062331 191.437811,102.48975 C189.467346,105.873267 186.890622,108.650739 183.707562,110.82225 C180.524503,112.993761 176.886775,114.609745 172.79427,115.67025 C168.701765,116.730755 164.533535,117.261 160.289455,117.261 C153.317039,117.261 147.102587,116.099512 141.645914,113.7765 C136.18924,111.453488 131.743129,108.27202 128.307445,104.232 L143.464796,90.4455 Z M205.00364,57.4185 L208.338257,39.087 L220.312565,39.087 L226.117471,10.4125888 L241.552621,19.2697612 C244.429761,20.9207541 246.320916,24.9070119 245.777461,28.1683571 L243.958032,39.087 L260.024824,39.087 L256.690206,57.4185 L241.078135,57.4185 L235.621489,86.961 C235.520439,87.6680035 235.444653,88.4002462 235.394129,89.15775 C235.343604,89.9152538 235.318342,90.5464975 235.318342,91.0515 C235.318342,93.5765126 236.025678,95.2934955 237.440371,96.2025 C238.855064,97.1115045 240.774976,97.566 243.200164,97.566 C244.412758,97.566 245.600072,97.465001 246.762142,97.263 C247.924211,97.060999 248.959953,96.859001 249.869399,96.657 L247.595796,114.0795 C246.181103,114.685503 244.185405,115.215748 241.608642,115.67025 C239.03188,116.124752 236.581466,116.352 234.257327,116.352 C226.981763,116.352 221.247289,114.887515 217.053734,111.9585 C212.860179,109.029485 210.763434,104.383532 210.763434,98.0205 C210.763434,96.8084939 210.83922,95.4197578 210.990794,93.85425 C211.142368,92.2887422 211.369726,90.7990071 211.672875,89.385 L217.432668,57.4185 L205.00364,57.4185 Z M756.413055,57.8295 L759.747672,39.498 L772.088718,39.4979992 L775.20817,25.5 L795.067572,14.8382706 C797.987387,13.2707371 799.876198,14.6366238 799.284546,17.8990109 L795.367447,39.498 L811.434239,39.498 L808.099621,57.8295 L792.48755,57.8295 L787.030904,87.372 C786.929854,88.0790035 786.854068,88.8112462 786.803543,89.56875 C786.753019,90.3262538 786.727757,90.9574975 786.727757,91.4625 C786.727757,93.9875126 787.435093,95.7044955 788.849786,96.6135 C790.264479,97.5225045 792.184391,97.977 794.609579,97.977 C795.822173,97.977 797.009487,97.876001 798.171557,97.674 C799.333626,97.471999 800.369368,97.270001 801.278813,97.068 L799.005211,114.4905 C797.590518,115.096503 795.59482,115.626748 793.018057,116.08125 C790.441295,116.535752 787.990881,116.763 785.666742,116.763 C778.391177,116.763 772.656704,115.298515 768.463149,112.3695 C764.269594,109.440485 762.172848,104.794532 762.172848,98.4315 C762.172848,97.2194939 762.248634,95.8307578 762.400209,94.26525 C762.551783,92.6997422 762.779141,91.2100071 763.082289,89.796 L768.842083,57.8295 L756.413055,57.8295 Z M334.674776,65.751 C334.523202,67.3670081 334.295844,68.9324924 333.992696,70.4475 L328.839196,99.8385 C328.333949,102.464513 327.955019,105.140986 327.702395,107.868 C327.449771,110.595014 327.323461,112.816991 327.323461,114.534 L305.800023,114.534 C305.800023,113.422994 305.850547,112.135257 305.951597,110.67075 C306.052646,109.206243 306.204218,107.817507 306.406317,106.5045 L306.10317,106.5045 C300.545447,113.069533 292.865799,116.352 283.063997,116.352 C280.43671,116.352 277.733676,116.023753 274.954814,115.36725 C272.175953,114.710747 269.649753,113.599758 267.376139,112.03425 C265.102525,110.468742 263.258399,108.398263 261.843706,105.82275 C260.429013,103.247237 259.721677,100.091019 259.721677,96.354 C259.721677,90.2939697 261.237397,85.3450192 264.268882,81.507 C267.300367,77.6689808 271.266501,74.6895106 276.167402,72.5685 C281.068304,70.4474894 286.625943,68.983004 292.840488,68.175 C299.055033,67.366996 305.294747,66.963 311.559816,66.963 C311.761915,66.0539955 311.862963,65.3470025 311.862963,64.842 L311.862963,63.4785 C311.862963,60.5494854 310.827221,58.4032568 308.755706,57.03975 C306.684192,55.6762432 303.779062,54.9945 300.04023,54.9945 C296.604546,54.9945 293.143653,55.6509934 289.657444,56.964 C286.171236,58.2770066 283.013487,59.9939894 280.1841,62.115 L278.927235,60.3638557 C274.096408,53.6332411 276.090251,45.0024008 283.511363,41.3204718 C283.511363,41.3204718 282.800976,41.1391341 288.712373,39.1696242 C294.623769,37.2001144 297.615025,36.8145 303.374847,36.8145 C307.922075,36.8145 312.115567,37.2942452 315.955448,38.25375 C319.79533,39.2132548 323.104651,40.7029899 325.883513,42.723 C328.662374,44.7430101 330.860168,47.2679849 332.47696,50.298 C334.093753,53.3280152 334.902137,56.9639788 334.902137,61.206 C334.902137,62.6200071 334.826351,64.1349919 334.674776,65.751 Z M308.073626,81.507 C305.04214,81.507 301.960177,81.6332487 298.827642,81.88575 C295.695107,82.1382513 292.891025,82.668496 290.415312,83.4765 C287.939599,84.284504 285.893377,85.3954929 284.276585,86.8095 C282.659793,88.2235071 281.851409,90.0919884 281.851409,92.415 C281.851409,95.4450152 282.887151,97.4902447 284.958666,98.55075 C287.030181,99.6112553 289.329023,100.1415 291.85526,100.1415 C296.503538,100.1415 300.393886,98.7022644 303.52642,95.82375 C306.658955,92.9452356 308.629391,89.3850212 309.437787,85.143 L310.195655,81.507 L308.073626,81.507 Z M344.905988,114.534 L362.638597,13.7870007 C363.978809,6.17265046 371.331692,0 379.060867,0 L389.771747,0 L372.25307,98.7887817 C370.710995,107.484626 362.292591,114.534 353.459633,114.534 L344.905988,114.534 Z M389.620173,114.534 L407.180102,14.7680742 C408.615682,6.61189204 416.49797,0 424.774466,0 L434.485931,0 L416.793973,99.7659258 C415.347599,107.922108 407.465345,114.534 399.184053,114.534 L389.620173,114.534 Z M444.79293,54.6915 C445.197128,52.7724904 445.626582,50.2980152 446.081305,47.268 C446.536028,44.2379848 446.864434,41.5110121 447.066533,39.087 L470.257279,39.087 C470.15623,40.2990061 469.979396,42.0412386 469.726772,44.31375 C469.474148,46.5862614 469.24679,48.4799924 469.044691,49.995 C470.459383,48.3789919 471.773007,46.7882578 473.288749,45.22275 C474.804492,43.6572422 476.497046,42.2685061 478.366462,41.0565 C480.235878,39.8444939 482.332624,38.8850035 484.656763,38.178 C486.980901,37.4709965 489.507101,37.1175 492.235438,37.1175 C498.197359,37.1175 502.971877,38.3547376 506.559134,40.82925 C510.146392,43.3037624 512.64733,46.5104803 514.062023,50.4495 C516.992459,46.5104803 520.478615,43.3037624 524.520595,40.82925 C528.562576,38.3547376 533.412879,37.1175 539.071652,37.1175 C543.416781,37.1175 547.155557,37.7739934 550.288091,39.087 C553.420626,40.4000066 556.022612,42.1674889 558.094127,44.3895 C560.165642,46.6115111 561.681362,49.1617356 562.641332,52.04025 C563.601303,54.9187644 564.081281,57.8729849 564.081281,60.903 C564.081281,62.1150061 564.030757,63.3269939 563.929707,64.539 C563.828658,65.7510061 563.677086,66.9124944 563.474987,68.0235 L555.138444,114.534 L545.8834,114.534 C537.600942,114.534 532.039187,107.916443 533.461111,99.7519017 L538.010637,73.629 C538.515885,71.3059884 538.768505,69.1850096 538.768505,67.266 C538.768505,64.3369854 538.010645,61.8877598 536.494902,59.91825 C534.97916,57.9487402 532.45296,56.964 528.916227,56.964 C526.794187,56.964 524.874275,57.4437452 523.156434,58.40325 C521.438592,59.3627548 519.922872,60.6252422 518.609228,62.19075 C517.295585,63.7562578 516.234581,65.5742396 515.426185,67.64475 C514.617789,69.7152604 514.011501,71.8109894 513.607303,73.932 L506.483348,114.534 L482.080013,114.534 L489.658688,71.3565 C489.961837,69.8414924 490.113409,68.4275066 490.113409,67.1145 C490.113409,64.1854854 489.380811,61.7615096 487.915593,59.8425 C486.450375,57.9234904 484.151533,56.964 481.018998,56.964 C476.875968,56.964 473.516123,58.6052336 470.93936,61.88775 C468.362598,65.1702664 466.670044,69.0839773 465.861648,73.629 L458.586119,114.534 L434.334358,114.534 L444.79293,54.6915 Z M598.791614,83.325 C598.690565,83.729002 598.640041,84.1834975 598.640041,84.6885 C598.640041,86.8095106 599.120019,88.7032417 600.079989,90.36975 C601.039959,92.0362583 602.303059,93.4502442 603.869327,94.61175 C605.435594,95.7732558 607.203934,96.656997 609.174399,97.263 C611.144865,97.869003 613.191087,98.172 615.313126,98.172 C619.153008,98.172 622.538116,97.4650071 625.468551,96.051 C628.398987,94.6369929 631.026235,92.7180121 633.350374,90.294 L648.659298,102.2625 C643.808922,107.413526 638.402854,111.125239 632.440933,113.39775 C626.479012,115.670261 620.062464,116.8065 613.191097,116.8065 C607.936523,116.8065 603.060957,116.074257 598.564254,114.60975 C594.067551,113.145243 590.151941,110.973764 586.817307,108.09525 C583.482673,105.216736 580.855425,101.656521 578.935485,97.4145 C577.015544,93.1724788 576.055588,88.3245273 576.055588,82.8705 C576.055588,76.4064677 577.192378,70.371778 579.465992,64.76625 C581.739606,59.160722 584.872094,54.2875207 588.863549,50.1465 C592.855005,46.0054793 597.629523,42.7482619 603.187246,40.37475 C608.744969,38.0012381 614.858373,36.8145 621.52764,36.8145 C626.479066,36.8145 631.000964,37.5214929 635.093469,38.9355 C639.185974,40.3495071 642.697392,42.3947366 645.627828,45.07125 C648.558264,47.7477634 650.831844,51.0554803 652.448636,54.9945 C654.065428,58.9335197 654.873812,63.4784742 654.873812,68.6295 C654.873812,70.4475091 654.696978,72.7452361 654.343305,75.52275 C653.989631,78.3002639 653.509653,80.9009879 652.903356,83.325 L598.791614,83.325 Z M633.1988,68.478 C633.29985,67.9729975 633.350374,67.4680025 633.350374,66.963 L633.350374,65.448 C633.350374,62.1149833 632.16306,59.3375111 629.788396,57.1155 C627.413733,54.8934889 624.003363,53.7825 619.557185,53.7825 C616.828848,53.7825 614.378434,54.2622452 612.20587,55.22175 C610.033305,56.1812548 608.138655,57.3679929 606.521863,58.782 C604.905071,60.1960071 603.591447,61.7614914 602.580952,63.4785 C601.570457,65.1955086 600.863121,66.8619919 600.458923,68.478 L633.1988,68.478 Z M698.526982,49.995 C700.952171,46.2579813 704.185706,43.1775121 708.227687,40.7535 C712.269667,38.3294879 716.917875,37.1175 722.17245,37.1175 C726.416529,37.1175 730.054257,37.7234939 733.085742,38.9355 C736.117227,40.1475061 738.618165,41.8139894 740.588631,43.935 C742.559096,46.0560106 743.99903,48.5052361 744.908476,51.28275 C745.817921,54.0602639 746.272637,56.9639849 746.272637,59.994 C746.272637,61.4080071 746.222113,62.7967432 746.121064,64.16025 C746.020014,65.5237568 745.817918,66.8619934 745.51477,68.175 L737.3298,114.534 L713.078039,114.534 L720.201994,73.629 C720.707242,71.3059884 720.959862,69.1850096 720.959862,67.266 C720.959862,64.4379859 720.227264,62.0392598 718.762046,60.06975 C717.296828,58.1002402 714.694842,57.1155 710.95601,57.1155 C708.732921,57.1155 706.737223,57.5447457 704.968856,58.40325 C703.20049,59.2617543 701.634246,60.4484924 700.270078,61.9635 C698.905909,63.4785076 697.794381,65.2459899 696.93546,67.266 C696.07654,69.2860101 695.44499,71.4069889 695.040792,73.629 L690.391896,99.7663563 C688.941247,107.922301 681.042002,114.534 672.768546,114.534 L663.513502,114.534 L673.972074,54.6915 C674.376272,52.7724904 674.805726,50.2980152 675.260449,47.268 C675.715172,44.2379848 676.043578,41.5110121 676.245677,39.087 L699.436423,39.087 C699.335374,40.2990061 699.15854,42.0159889 698.905916,44.238 C698.653292,46.4600111 698.425934,48.3789919 698.223835,49.995 L698.526982,49.995 Z M820.69523,90.4455 C822.61517,93.2735141 825.166632,95.4197427 828.349692,96.88425 C831.532752,98.3487573 834.791549,99.081 838.126183,99.081 C841.359768,99.081 843.961753,98.4750061 845.932219,97.263 C847.902684,96.0509939 848.887902,94.3845106 848.887902,92.2635 C848.887902,90.2434899 847.97847,88.6780056 846.159579,87.567 C844.340688,86.4559944 841.662916,85.3450056 838.126183,84.234 C834.58945,83.223995 831.482224,82.0877563 828.804412,80.82525 C826.1266,79.5627437 823.878283,78.0982583 822.059391,76.43175 C820.2405,74.7652417 818.876352,72.8462609 817.966907,70.67475 C817.057461,68.5032391 816.602745,65.9530146 816.602745,63.024 C816.602745,58.8829793 817.537439,55.1965162 819.406855,51.9645 C821.276271,48.7324838 823.751947,45.9802614 826.833957,43.70775 C829.915967,41.4352386 833.528433,39.7182558 837.671463,38.55675 C841.814493,37.3952442 846.159556,36.8145 850.706784,36.8145 C856.567656,36.8145 862.04951,37.7992402 867.15251,39.76875 C872.25551,41.7382598 876.322692,44.6419808 879.354177,48.48 L864.045253,61.3575 C862.63056,59.3374899 860.685386,57.6710066 858.209673,56.358 C855.73396,55.0449934 852.778306,54.3885 849.342623,54.3885 C846.715336,54.3885 844.315446,54.893495 842.142881,55.9035 C839.970317,56.9135051 838.884051,58.6304879 838.884051,61.0545 C838.884051,62.7715086 839.692435,64.1097452 841.309227,65.06925 C842.926019,66.0287548 845.401695,66.9629955 848.736329,67.872 C855.809794,69.7910096 861.392696,72.4422331 865.485201,75.82575 C869.577707,79.2092669 871.623928,84.1329677 871.623928,90.597 C871.623928,95.1420227 870.638711,99.1062331 868.668245,102.48975 C866.69778,105.873267 864.121056,108.650739 860.937996,110.82225 C857.754937,112.993761 854.117209,114.609745 850.024704,115.67025 C845.932198,116.730755 841.763969,117.261 837.519889,117.261 C830.547473,117.261 824.333021,116.099512 818.876348,113.7765 C813.419674,111.453488 808.973562,108.27202 805.537879,104.232 L820.69523,90.4455 Z" id="installments-copy" fill="#2E3B50"></path>
    </g>
</svg>