<?xml version="1.0" encoding="UTF-8" standalone="no"?>
<svg width="168px" height="38px" viewBox="0 0 168 38" version="1.1" xmlns="http://www.w3.org/2000/svg" xmlns:xlink="http://www.w3.org/1999/xlink">
    <!-- Generator: Sketch 3.8.3 (29802) - http://www.bohemiancoding.com/sketch -->
    <title>SeperPay</title>
    <desc>Created with Sketch.</desc>
    <defs></defs>
    <g id="Page-1" stroke="none" stroke-width="1" fill="none" fill-rule="evenodd">
        <g id="Artboard-5" transform="translate(-666.000000, -424.000000)" fill="#656565">
            <path d="M685.698,430.367 C685.501999,430.689002 685.302501,430.923499 685.0995,431.0705 C684.896499,431.217501 684.634002,431.291 684.312,431.291 C684.003998,431.291 683.671502,431.182501 683.3145,430.9655 C682.957498,430.748499 682.541002,430.514001 682.065,430.262 C681.588998,430.009999 681.043003,429.775501 680.427,429.5585 C679.810997,429.341499 679.090004,429.233 678.264,429.233 C676.807993,429.233 675.716004,429.558497 674.988,430.2095 C674.259996,430.860503 673.896,431.710995 673.896,432.761 C673.896,433.433003 674.095498,433.989498 674.4945,434.4305 C674.893502,434.871502 675.418497,435.252998 676.0695,435.575 C676.720503,435.897002 677.458996,436.183999 678.285,436.436 C679.111004,436.688001 679.957996,436.964498 680.826,437.2655 C681.694004,437.566502 682.540996,437.919998 683.367,438.326 C684.193004,438.732002 684.931497,439.242997 685.5825,439.859 C686.233503,440.475003 686.758498,441.227496 687.1575,442.1165 C687.556502,443.005504 687.756,444.086994 687.756,445.361 C687.756,446.747007 687.514502,448.045494 687.0315,449.2565 C686.548498,450.467506 685.852005,451.524495 684.942,452.4275 C684.031995,453.330505 682.908507,454.040997 681.5715,454.559 C680.234493,455.077003 678.719008,455.336 677.025,455.336 C676.058995,455.336 675.096505,455.238001 674.1375,455.042 C673.178495,454.845999 672.254504,454.573002 671.3655,454.223 C670.476496,453.872998 669.640004,453.453002 668.856,452.963 C668.071996,452.472998 667.386003,451.927003 666.798,451.325 L668.646,448.343 C668.800001,448.118999 669.002999,447.933501 669.255,447.7865 C669.507001,447.639499 669.772999,447.566 670.053,447.566 C670.431002,447.566 670.829998,447.705999 671.25,447.986 C671.670002,448.266001 672.152997,448.573998 672.699,448.91 C673.245003,449.246002 673.878496,449.553999 674.5995,449.834 C675.320504,450.114001 676.184995,450.254 677.193,450.254 C678.663007,450.254 679.800496,449.918003 680.6055,449.246 C681.410504,448.573997 681.813,447.573007 681.813,446.243 C681.813,445.472996 681.613502,444.850002 681.2145,444.374 C680.815498,443.897998 680.294003,443.499002 679.65,443.177 C679.005997,442.854998 678.271004,442.578501 677.445,442.3475 C676.618996,442.116499 675.772004,441.861001 674.904,441.581 C674.035996,441.300999 673.189004,440.965002 672.363,440.573 C671.536996,440.180998 670.802003,439.663003 670.158,439.019 C669.513997,438.374997 668.992502,437.577005 668.5935,436.625 C668.194498,435.672995 667.995,434.490007 667.995,433.076 C667.995,431.941994 668.218998,430.843005 668.667,429.779 C669.115002,428.714995 669.772996,427.770004 670.641,426.944 C671.509004,426.117996 672.576494,425.453003 673.8435,424.949 C675.110506,424.444997 676.562992,424.193 678.201,424.193 C680.035009,424.193 681.732492,424.476497 683.2935,425.0435 C684.854508,425.610503 686.173995,426.397995 687.252,427.406 L685.698,430.367 Z M699.636912,433.013 C701.022918,433.013 702.300406,433.233498 703.469412,433.6745 C704.638417,434.115502 705.646407,434.755996 706.493412,435.596 C707.340416,436.436004 707.998409,437.468494 708.467412,438.6935 C708.936414,439.918506 709.170912,441.314992 709.170912,442.883 C709.170912,443.317002 709.149912,443.673999 709.107912,443.954 C709.065911,444.234001 708.995912,444.457999 708.897912,444.626 C708.799911,444.794001 708.666912,444.9095 708.498912,444.9725 C708.330911,445.0355 708.113913,445.067 707.847912,445.067 L694.848912,445.067 C695.030912,447.09701 695.608407,448.580995 696.581412,449.519 C697.554416,450.457005 698.831904,450.926 700.413912,450.926 C701.211916,450.926 701.901409,450.831501 702.482412,450.6425 C703.063414,450.453499 703.574409,450.243501 704.015412,450.0125 C704.456414,449.781499 704.85541,449.571501 705.212412,449.3825 C705.569413,449.193499 705.92291,449.099 706.272912,449.099 C706.720914,449.099 707.07091,449.266998 707.322912,449.603 L709.002912,451.703 C708.386908,452.417004 707.707915,453.008498 706.965912,453.4775 C706.223908,453.946502 705.453916,454.317499 704.655912,454.5905 C703.857908,454.863501 703.052916,455.052499 702.240912,455.1575 C701.428907,455.262501 700.644915,455.315 699.888912,455.315 C698.376904,455.315 696.966418,455.066502 695.657412,454.5695 C694.348405,454.072498 693.207416,453.337505 692.234412,452.3645 C691.261407,451.391495 690.494914,450.184007 689.934912,448.742 C689.374909,447.299993 689.094912,445.62701 689.094912,443.723 C689.094912,442.252993 689.336409,440.867007 689.819412,439.565 C690.302414,438.262993 690.998907,437.129005 691.908912,436.163 C692.818916,435.196995 693.924905,434.430503 695.226912,433.8635 C696.528918,433.296497 697.998903,433.013 699.636912,433.013 L699.636912,433.013 Z M699.741912,437.087 C698.355905,437.087 697.270915,437.482496 696.486912,438.2735 C695.702908,439.064504 695.191913,440.180993 694.953912,441.623 L703.983912,441.623 C703.983912,441.020997 703.903412,440.447003 703.742412,439.901 C703.581411,439.354997 703.325913,438.872002 702.975912,438.452 C702.62591,438.031998 702.184914,437.699501 701.652912,437.4545 C701.120909,437.209499 700.483915,437.087 699.741912,437.087 L699.741912,437.087 Z M711.475823,461.993 L711.475823,433.349 L715.045823,433.349 C715.773827,433.349 716.256822,433.684997 716.494823,434.357 L716.935823,436.184 C717.369825,435.707998 717.831821,435.270502 718.321823,434.8715 C718.811826,434.472498 719.33682,434.129501 719.896823,433.8425 C720.456826,433.555499 721.05882,433.331501 721.702823,433.1705 C722.346826,433.009499 723.046819,432.929 723.802823,432.929 C724.964829,432.929 726.032318,433.177498 727.005323,433.6745 C727.978328,434.171502 728.81482,434.892495 729.514823,435.8375 C730.214827,436.782505 730.760821,437.940993 731.152823,439.313 C731.544825,440.685007 731.740823,442.252991 731.740823,444.017 C731.740823,445.641008 731.520325,447.142493 731.079323,448.5215 C730.638321,449.900507 730.011827,451.093995 729.199823,452.102 C728.387819,453.110005 727.411329,453.897497 726.270323,454.4645 C725.129317,455.031503 723.85883,455.315 722.458823,455.315 C721.282817,455.315 720.285327,455.140002 719.466323,454.79 C718.647319,454.439998 717.915826,453.964003 717.271823,453.362 L717.271823,461.993 L711.475823,461.993 Z M721.807823,437.444 C720.785818,437.444 719.928327,437.646998 719.235323,438.053 C718.54232,438.459002 717.887826,439.039996 717.271823,439.796 L717.271823,449.288 C717.817826,449.918003 718.40932,450.358999 719.046323,450.611 C719.683326,450.863001 720.365819,450.989 721.093823,450.989 C721.793827,450.989 722.43082,450.856001 723.004823,450.59 C723.578826,450.323999 724.072321,449.907503 724.485323,449.3405 C724.898325,448.773497 725.216822,448.049004 725.440823,447.167 C725.664824,446.284996 725.776823,445.235006 725.776823,444.017 C725.776823,442.812994 725.682324,441.791004 725.493323,440.951 C725.304322,440.110996 725.038325,439.432003 724.695323,438.914 C724.352321,438.395997 723.935826,438.021501 723.445823,437.7905 C722.955821,437.559499 722.409826,437.444 721.807823,437.444 L721.807823,437.444 Z M743.558735,433.013 C744.944742,433.013 746.222229,433.233498 747.391235,433.6745 C748.56024,434.115502 749.56823,434.755996 750.415235,435.596 C751.262239,436.436004 751.920232,437.468494 752.389235,438.6935 C752.858237,439.918506 753.092735,441.314992 753.092735,442.883 C753.092735,443.317002 753.071735,443.673999 753.029735,443.954 C752.987734,444.234001 752.917735,444.457999 752.819735,444.626 C752.721734,444.794001 752.588735,444.9095 752.420735,444.9725 C752.252734,445.0355 752.035736,445.067 751.769735,445.067 L738.770735,445.067 C738.952736,447.09701 739.53023,448.580995 740.503235,449.519 C741.476239,450.457005 742.753727,450.926 744.335735,450.926 C745.133739,450.926 745.823232,450.831501 746.404235,450.6425 C746.985238,450.453499 747.496232,450.243501 747.937235,450.0125 C748.378237,449.781499 748.777233,449.571501 749.134235,449.3825 C749.491236,449.193499 749.844733,449.099 750.194735,449.099 C750.642737,449.099 750.992733,449.266998 751.244735,449.603 L752.924735,451.703 C752.308732,452.417004 751.629738,453.008498 750.887735,453.4775 C750.145731,453.946502 749.375739,454.317499 748.577735,454.5905 C747.779731,454.863501 746.974739,455.052499 746.162735,455.1575 C745.350731,455.262501 744.566738,455.315 743.810735,455.315 C742.298727,455.315 740.888241,455.066502 739.579235,454.5695 C738.270228,454.072498 737.129239,453.337505 736.156235,452.3645 C735.18323,451.391495 734.416737,450.184007 733.856735,448.742 C733.296732,447.299993 733.016735,445.62701 733.016735,443.723 C733.016735,442.252993 733.258232,440.867007 733.741235,439.565 C734.224237,438.262993 734.92073,437.129005 735.830735,436.163 C736.740739,435.196995 737.846728,434.430503 739.148735,433.8635 C740.450741,433.296497 741.920726,433.013 743.558735,433.013 L743.558735,433.013 Z M743.663735,437.087 C742.277728,437.087 741.192739,437.482496 740.408735,438.2735 C739.624731,439.064504 739.113736,440.180993 738.875735,441.623 L747.905735,441.623 C747.905735,441.020997 747.825235,440.447003 747.664235,439.901 C747.503234,439.354997 747.247736,438.872002 746.897735,438.452 C746.547733,438.031998 746.106737,437.699501 745.574735,437.4545 C745.042732,437.209499 744.405738,437.087 743.663735,437.087 L743.663735,437.087 Z M755.397646,455 L755.397646,433.349 L758.820646,433.349 C759.408649,433.349 759.814645,433.453999 760.038646,433.664 C760.262647,433.874001 760.423646,434.237997 760.521646,434.756 L760.815646,436.919 C761.50165,435.686994 762.296142,434.714004 763.199146,434 C764.102151,433.285996 765.15564,432.929 766.359646,432.929 C767.339651,432.929 768.137643,433.159998 768.753646,433.622 L768.375646,437.906 C768.305646,438.186001 768.197147,438.378499 768.050146,438.4835 C767.903145,438.588501 767.703647,438.641 767.451646,438.641 C767.227645,438.641 766.905648,438.6095 766.485646,438.5465 C766.065644,438.4835 765.673648,438.452 765.309646,438.452 C764.245641,438.452 763.402149,438.742497 762.779146,439.3235 C762.156143,439.904503 761.627648,440.712995 761.193646,441.749 L761.193646,455 L755.397646,455 Z M776.686558,444.521 L776.686558,455 L770.386558,455 L770.386558,424.529 L780.676558,424.529 C782.762568,424.529 784.56505,424.773998 786.084058,425.264 C787.603065,425.754002 788.852553,426.436496 789.832558,427.3115 C790.812563,428.186504 791.537055,429.225994 792.006058,430.43 C792.47506,431.634006 792.709558,432.942993 792.709558,434.357 C792.709558,435.855007 792.46456,437.226994 791.974558,438.473 C791.484555,439.719006 790.742563,440.789996 789.748558,441.686 C788.754553,442.582004 787.501565,443.278498 785.989558,443.7755 C784.47755,444.272502 782.706568,444.521 780.676558,444.521 L776.686558,444.521 Z M776.686558,439.691 L780.676558,439.691 C782.650568,439.691 784.096053,439.215005 785.013058,438.263 C785.930062,437.310995 786.388558,436.009008 786.388558,434.357 C786.388558,433.600996 786.273059,432.911503 786.042058,432.2885 C785.811057,431.665497 785.46106,431.133502 784.992058,430.6925 C784.523055,430.251498 783.931561,429.912001 783.217558,429.674 C782.503554,429.435999 781.656563,429.317 780.676558,429.317 L776.686558,429.317 L776.686558,439.691 Z M808.328469,455 C807.782466,455 807.365971,454.923001 807.078969,454.769 C806.791968,454.614999 806.55747,454.293002 806.375469,453.803 L805.913469,452.438 C805.367466,452.914002 804.838972,453.330498 804.327969,453.6875 C803.816967,454.044502 803.284972,454.345499 802.731969,454.5905 C802.178966,454.835501 801.590972,455.020999 800.967969,455.147 C800.344966,455.273001 799.655473,455.336 798.899469,455.336 C797.947464,455.336 797.079473,455.210001 796.295469,454.958 C795.511465,454.705999 794.835972,454.331502 794.268969,453.8345 C793.701966,453.337498 793.264471,452.718004 792.956469,451.976 C792.648468,451.233996 792.494469,450.380005 792.494469,449.414 C792.494469,448.615996 792.697467,447.821504 793.103469,447.0305 C793.509471,446.239496 794.205964,445.518503 795.192969,444.8675 C796.179974,444.216497 797.495961,443.674002 799.140969,443.24 C800.785977,442.805998 802.847457,442.561 805.325469,442.505 L805.325469,441.392 C805.325469,440.033993 805.038472,439.036503 804.464469,438.3995 C803.890466,437.762497 803.064475,437.444 801.986469,437.444 C801.188465,437.444 800.523472,437.538499 799.991469,437.7275 C799.459467,437.916501 798.993971,438.119499 798.594969,438.3365 C798.195967,438.553501 797.821471,438.756499 797.471469,438.9455 C797.121467,439.134501 796.715472,439.229 796.253469,439.229 C795.847467,439.229 795.507971,439.127501 795.234969,438.9245 C794.961968,438.721499 794.73447,438.480001 794.552469,438.2 L793.523469,436.352 C794.797476,435.203994 796.204462,434.346503 797.744469,433.7795 C799.284477,433.212497 800.95046,432.929 802.742469,432.929 C804.030476,432.929 805.181964,433.138998 806.196969,433.559 C807.211974,433.979002 808.072966,434.563496 808.779969,435.3125 C809.486973,436.061504 810.029467,436.953995 810.407469,437.99 C810.785471,439.026005 810.974469,440.159994 810.974469,441.392 L810.974469,455 L808.328469,455 Z M800.705469,451.43 C801.657474,451.43 802.490466,451.258502 803.204469,450.9155 C803.918473,450.572498 804.625466,450.044004 805.325469,449.33 L805.325469,445.97 C803.911462,446.026 802.735474,446.144999 801.797469,446.327 C800.859465,446.509001 800.113972,446.736499 799.560969,447.0095 C799.007966,447.282501 798.61597,447.597498 798.384969,447.9545 C798.153968,448.311502 798.038469,448.699998 798.038469,449.12 C798.038469,449.960004 798.272967,450.554998 798.741969,450.905 C799.210972,451.255002 799.865465,451.43 800.705469,451.43 L800.705469,451.43 Z M821.973381,460.817 C821.79138,461.209002 821.570882,461.502999 821.311881,461.699 C821.052879,461.895001 820.643384,461.993 820.083381,461.993 L815.778381,461.993 L819.873381,453.278 L811.179381,433.349 L816.261381,433.349 C816.723383,433.349 817.080379,433.453999 817.332381,433.664 C817.584382,433.874001 817.76638,434.118999 817.878381,434.399 L821.994381,444.752 C822.288382,445.578004 822.54038,446.396996 822.750381,447.209 C822.876381,446.788998 823.01288,446.372502 823.159881,445.9595 C823.306881,445.546498 823.45738,445.137002 823.611381,444.731 L827.433381,434.399 C827.545381,434.090998 827.748379,433.839001 828.042381,433.643 C828.336382,433.446999 828.658379,433.349 829.008381,433.349 L833.649381,433.349 L821.973381,460.817 Z" id="SeperPay"></path>
        </g>
    </g>
</svg>