<?xml version="1.0" encoding="UTF-8" standalone="no"?>
<svg width="880px" height="118px" viewBox="0 0 880 118" version="1.1" xmlns="http://www.w3.org/2000/svg" xmlns:xlink="http://www.w3.org/1999/xlink">
    <!-- Generator: Sketch 3.8.3 (29802) - http://www.bohemiancoding.com/sketch -->
    <title>installments</title>
    <desc>Created with Sketch.</desc>
    <defs></defs>
    <g id="Page-1" stroke="none" stroke-width="1" fill="none" fill-rule="evenodd">
        <path d="M15.9629693,115 C5.58201058,115 -1.38446898,106.710031 0.400899568,96.4952917 L10.353476,39.553 L34.7568108,39.553 L21.2667686,115 L15.9629693,115 Z M39.91031,14.2525 C39.91031,16.2725101 39.5566421,18.1409914 38.8492955,19.858 C38.1419489,21.5750086 37.156731,23.1152432 35.8936121,24.47875 C34.6304932,25.8422568 33.1400353,26.9027462 31.4221936,27.66025 C29.7043519,28.4177538 27.834964,28.7965 25.8139738,28.7965 C21.9740924,28.7965 18.8163426,27.6602614 16.3406295,25.38775 C13.8649165,23.1152386 12.6270786,20.2115177 12.6270786,16.6765 C12.6270786,12.5354793 14.0164885,9.07626389 16.7953501,6.29875 C19.5742116,3.52123611 22.9845814,2.1325 27.0265619,2.1325 C30.7653938,2.1325 33.8473576,3.29398839 36.2725459,5.617 C38.6977341,7.94001162 39.91031,10.8184828 39.91031,14.2525 L39.91031,14.2525 Z M76.591099,50.461 C79.0162872,46.7239813 82.2498231,43.6435121 86.2918035,41.2195 C90.3337839,38.7954879 94.9819917,37.5835 100.236566,37.5835 C104.480646,37.5835 108.118373,38.1894939 111.149859,39.4015 C114.181344,40.6135061 116.682282,42.2799894 118.652747,44.401 C120.623213,46.5220106 122.063147,48.9712361 122.972592,51.74875 C123.882038,54.5262639 124.336754,57.4299849 124.336754,60.46 C124.336754,61.8740071 124.28623,63.2627432 124.18518,64.62625 C124.084131,65.9897568 123.882035,67.3279934 123.578886,68.641 L115.393917,115 L91.1421557,115 L98.2661106,74.095 C98.7713582,71.7719884 99.0239782,69.6510096 99.0239782,67.732 C99.0239782,64.9039859 98.2913802,62.5052598 96.8261623,60.53575 C95.3609444,58.5662402 92.7589585,57.5815 89.0201266,57.5815 C86.7970374,57.5815 84.8013395,58.0107457 83.0329731,58.86925 C81.2646066,59.7277543 79.6983627,60.9144924 78.3341943,62.4295 C76.9700259,63.9445076 75.858498,65.7119899 74.9995771,67.732 C74.1406563,69.7520101 73.5091063,71.8729889 73.1049083,74.095 L65.8293799,115 L41.5776186,115 L52.0361907,55.1575 C52.4403887,53.2384904 52.8698427,50.7640152 53.3245655,47.734 C53.7792883,44.7039848 54.1076943,41.9770121 54.3097933,39.553 L77.50054,39.553 C77.3994905,40.7650061 77.2226565,42.4819889 76.9700328,44.704 C76.717409,46.9260111 76.490051,48.8449919 76.287952,50.461 L76.591099,50.461 Z M143.58659,90.9115 C145.50653,93.7395141 148.057992,95.8857427 151.241052,97.35025 C154.424111,98.8147573 157.682909,99.547 161.017543,99.547 C164.251127,99.547 166.853113,98.9410061 168.823579,97.729 C170.794044,96.5169939 171.779262,94.8505106 171.779262,92.7295 C171.779262,90.7094899 170.86983,89.1440056 169.050939,88.033 C167.232048,86.9219944 164.554276,85.8110056 161.017543,84.7 C157.48081,83.689995 154.373584,82.5537563 151.695772,81.29125 C149.01796,80.0287437 146.769642,78.5642583 144.950751,76.89775 C143.13186,75.2312417 141.767712,73.3122609 140.858266,71.14075 C139.948821,68.9692391 139.494105,66.4190146 139.494105,63.49 C139.494105,59.3489793 140.428799,55.6625162 142.298215,52.4305 C144.167631,49.1984838 146.643307,46.4462614 149.725317,44.17375 C152.807327,41.9012386 156.419792,40.1842558 160.562822,39.02275 C164.705852,37.8612442 169.050916,37.2805 173.598144,37.2805 C179.459016,37.2805 184.940869,38.2652402 190.04387,40.23475 C195.14687,42.2042598 199.214052,45.1079808 202.245537,48.946 L186.936613,61.8235 C185.52192,59.8034899 183.576746,58.1370066 181.101033,56.824 C178.62532,55.5109934 175.669666,54.8545 172.233983,54.8545 C169.606695,54.8545 167.206805,55.359495 165.034241,56.3695 C162.861676,57.3795051 161.77541,59.0964879 161.77541,61.5205 C161.77541,63.2375086 162.583794,64.5757452 164.200587,65.53525 C165.817379,66.4947548 168.293055,67.4289955 171.627689,68.338 C178.701154,70.2570096 184.284056,72.9082331 188.376561,76.29175 C192.469066,79.6752669 194.515288,84.5989677 194.515288,91.063 C194.515288,95.6080227 193.53007,99.5722331 191.559605,102.95575 C189.589139,106.339267 187.012415,109.116739 183.829356,111.28825 C180.646296,113.459761 177.008568,115.075745 172.916063,116.13625 C168.823558,117.196755 164.655328,117.727 160.411249,117.727 C153.438833,117.727 147.224381,116.565512 141.767707,114.2425 C136.311034,111.919488 131.864922,108.73802 128.429239,104.698 L143.58659,90.9115 Z M205.125434,57.8845 L208.460051,39.553 L220.434358,39.553 L226.239264,10.8785888 L241.674414,19.7357612 C244.551554,21.3867541 246.44271,25.3730119 245.899255,28.6343571 L244.079825,39.553 L260.146617,39.553 L256.812,57.8845 L241.199929,57.8845 L235.743282,87.427 C235.642233,88.1340035 235.566447,88.8662462 235.515922,89.62375 C235.465397,90.3812538 235.440135,91.0124975 235.440135,91.5175 C235.440135,94.0425126 236.147471,95.7594955 237.562164,96.6685 C238.976858,97.5775045 240.89677,98.032 243.321958,98.032 C244.534552,98.032 245.721866,97.931001 246.883935,97.729 C248.046005,97.526999 249.081747,97.325001 249.991192,97.123 L247.71759,114.5455 C246.302896,115.151503 244.307198,115.681748 241.730436,116.13625 C239.153673,116.590752 236.70326,116.818 234.379121,116.818 C227.103556,116.818 221.369082,115.353515 217.175528,112.4245 C212.981973,109.495485 210.885227,104.849532 210.885227,98.4865 C210.885227,97.2744939 210.961013,95.8857578 211.112587,94.32025 C211.264162,92.7547422 211.49152,91.2650071 211.794668,89.851 L217.554461,57.8845 L205.125434,57.8845 Z M756.534849,58.2955 L759.869466,39.964 L772.210512,39.9639992 L775.329964,25.966 L795.189366,15.3042706 C798.109181,13.7367371 799.997992,15.1026238 799.40634,18.3650109 L795.48924,39.964 L811.556032,39.964 L808.221415,58.2955 L792.609344,58.2955 L787.152697,87.838 C787.051648,88.5450035 786.975862,89.2772462 786.925337,90.03475 C786.874812,90.7922538 786.84955,91.4234975 786.84955,91.9285 C786.84955,94.4535126 787.556886,96.1704955 788.971579,97.0795 C790.386272,97.9885045 792.306184,98.443 794.731373,98.443 C795.943967,98.443 797.131281,98.342001 798.29335,98.14 C799.455419,97.937999 800.491161,97.736001 801.400607,97.534 L799.127004,114.9565 C797.712311,115.562503 795.716613,116.092748 793.139851,116.54725 C790.563088,117.001752 788.112674,117.229 785.788536,117.229 C778.512971,117.229 772.778497,115.764515 768.584943,112.8355 C764.391388,109.906485 762.294642,105.260532 762.294642,98.8975 C762.294642,97.6854939 762.370428,96.2967578 762.522002,94.73125 C762.673576,93.1657422 762.900934,91.6760071 763.204083,90.262 L768.963876,58.2955 L756.534849,58.2955 Z M334.79657,66.217 C334.644996,67.8330081 334.417638,69.3984924 334.114489,70.9135 L328.96099,100.3045 C328.455742,102.930513 328.076812,105.606986 327.824189,108.334 C327.571565,111.061014 327.445255,113.282991 327.445255,115 L305.921817,115 C305.921817,113.888994 305.972341,112.601257 306.07339,111.13675 C306.17444,109.672243 306.326012,108.283507 306.528111,106.9705 L306.224964,106.9705 C300.667241,113.535533 292.987593,116.818 283.18579,116.818 C280.558503,116.818 277.855469,116.489753 275.076608,115.83325 C272.297746,115.176747 269.771546,114.065758 267.497932,112.50025 C265.224318,110.934742 263.380192,108.864263 261.965499,106.28875 C260.550806,103.713237 259.84347,100.557019 259.84347,96.82 C259.84347,90.7599697 261.35919,85.8110192 264.390675,81.973 C267.422161,78.1349808 271.388295,75.1555106 276.289196,73.0345 C281.190097,70.9134894 286.747737,69.449004 292.962282,68.641 C299.176827,67.832996 305.41654,67.429 311.68161,67.429 C311.883709,66.5199955 311.984757,65.8130025 311.984757,65.308 L311.984757,63.9445 C311.984757,61.0154854 310.949015,58.8692568 308.8775,57.50575 C306.805985,56.1422432 303.900855,55.4605 300.162023,55.4605 C296.72634,55.4605 293.265446,56.1169934 289.779238,57.43 C286.29303,58.7430066 283.13528,60.4599894 280.305894,62.581 L279.049028,60.8298557 C274.218201,54.0992411 276.212045,45.4684008 283.633156,41.7864718 C283.633156,41.7864718 282.92277,41.6051341 288.834166,39.6356242 C294.745562,37.6661144 297.736818,37.2805 303.49664,37.2805 C308.043868,37.2805 312.23736,37.7602452 316.077242,38.71975 C319.917123,39.6792548 323.226445,41.1689899 326.005306,43.189 C328.784168,45.2090101 330.981962,47.7339849 332.598754,50.764 C334.215546,53.7940152 335.02393,57.4299788 335.02393,61.672 C335.02393,63.0860071 334.948144,64.6009919 334.79657,66.217 Z M308.195419,81.973 C305.163934,81.973 302.08197,82.0992487 298.949435,82.35175 C295.8169,82.6042513 293.012819,83.134496 290.537106,83.9425 C288.061393,84.750504 286.015171,85.8614929 284.398378,87.2755 C282.781586,88.6895071 281.973202,90.5579884 281.973202,92.881 C281.973202,95.9110152 283.008944,97.9562447 285.080459,99.01675 C287.151974,100.077255 289.450816,100.6075 291.977054,100.6075 C296.625331,100.6075 300.515679,99.1682644 303.648214,96.28975 C306.780749,93.4112356 308.751185,89.8510212 309.559581,85.609 L310.317448,81.973 L308.195419,81.973 Z M345.027782,115 L362.760391,14.2530007 C364.100602,6.63865046 371.453486,0.466 379.182661,0.466 L389.89354,0.466 L372.374863,99.2547817 C370.832788,107.950626 362.414385,115 353.581426,115 L345.027782,115 Z M389.741967,115 L407.301895,15.2340742 C408.737475,7.07789204 416.619763,0.466 424.89626,0.466 L434.607725,0.466 L416.915767,100.231926 C415.469393,108.388108 407.587138,115 399.305846,115 L389.741967,115 Z M444.914723,55.1575 C445.318921,53.2384904 445.748375,50.7640152 446.203098,47.734 C446.657821,44.7039848 446.986227,41.9770121 447.188326,39.553 L470.379073,39.553 C470.278023,40.7650061 470.101189,42.5072386 469.848566,44.77975 C469.595942,47.0522614 469.368584,48.9459924 469.166485,50.461 C470.581176,48.8449919 471.8948,47.2542578 473.410543,45.68875 C474.926286,44.1232422 476.61884,42.7345061 478.488255,41.5225 C480.357671,40.3104939 482.454417,39.3510035 484.778556,38.644 C487.102695,37.9369965 489.628895,37.5835 492.357231,37.5835 C498.319153,37.5835 503.09367,38.8207376 506.680928,41.29525 C510.268186,43.7697624 512.769123,46.9764803 514.183817,50.9155 C517.114252,46.9764803 520.600408,43.7697624 524.642389,41.29525 C528.684369,38.8207376 533.534673,37.5835 539.193445,37.5835 C543.538574,37.5835 547.27735,38.2399934 550.409885,39.553 C553.54242,40.8660066 556.144406,42.6334889 558.215921,44.8555 C560.287436,47.0775111 561.803156,49.6277356 562.763126,52.50625 C563.723096,55.3847644 564.203074,58.3389849 564.203074,61.369 C564.203074,62.5810061 564.15255,63.7929939 564.051501,65.005 C563.950451,66.2170061 563.798879,67.3784944 563.59678,68.4895 L555.260237,115 L546.005194,115 C537.722735,115 532.16098,108.382443 533.582905,100.217902 L538.132431,74.095 C538.637678,71.7719884 538.890298,69.6510096 538.890298,67.732 C538.890298,64.8029854 538.132438,62.3537598 536.616696,60.38425 C535.100953,58.4147402 532.574753,57.43 529.03802,57.43 C526.915981,57.43 524.996069,57.9097452 523.278227,58.86925 C521.560385,59.8287548 520.044665,61.0912422 518.731022,62.65675 C517.417378,64.2222578 516.356374,66.0402396 515.547978,68.11075 C514.739582,70.1812604 514.133294,72.2769894 513.729096,74.398 L506.605141,115 L482.201806,115 L489.780482,71.8225 C490.08363,70.3074924 490.235202,68.8935066 490.235202,67.5805 C490.235202,64.6514854 489.502604,62.2275096 488.037386,60.3085 C486.572169,58.3894904 484.273327,57.43 481.140792,57.43 C476.997762,57.43 473.637916,59.0712336 471.061154,62.35375 C468.484391,65.6362664 466.791837,69.5499773 465.983441,74.095 L458.707913,115 L434.456151,115 L444.914723,55.1575 Z M598.913408,83.791 C598.812358,84.195002 598.761834,84.6494975 598.761834,85.1545 C598.761834,87.2755106 599.241812,89.1692417 600.201782,90.83575 C601.161753,92.5022583 602.424853,93.9162442 603.99112,95.07775 C605.557388,96.2392558 607.325727,97.122997 609.296193,97.729 C611.266658,98.335003 613.31288,98.638 615.43492,98.638 C619.274801,98.638 622.659909,97.9310071 625.590345,96.517 C628.520781,95.1029929 631.148029,93.1840121 633.472167,90.76 L648.781092,102.7285 C643.930715,107.879526 638.524647,111.591239 632.562726,113.86375 C626.600805,116.136261 620.184258,117.2725 613.312891,117.2725 C608.058316,117.2725 603.182751,116.540257 598.686047,115.07575 C594.189344,113.611243 590.273734,111.439764 586.9391,108.56125 C583.604467,105.682736 580.977219,102.122521 579.057278,97.8805 C577.137337,93.6384788 576.177381,88.7905273 576.177381,83.3365 C576.177381,76.8724677 577.314171,70.837778 579.587785,65.23225 C581.861399,59.626722 584.993887,54.7535207 588.985343,50.6125 C592.976798,46.4714793 597.751316,43.2142619 603.309039,40.84075 C608.866762,38.4672381 614.980166,37.2805 621.649434,37.2805 C626.60086,37.2805 631.122758,37.9874929 635.215263,39.4015 C639.307768,40.8155071 642.819186,42.8607366 645.749622,45.53725 C648.680057,48.2137634 650.953637,51.5214803 652.570429,55.4605 C654.187222,59.3995197 654.995606,63.9444742 654.995606,69.0955 C654.995606,70.9135091 654.818772,73.2112361 654.465098,75.98875 C654.111425,78.7662639 653.631447,81.3669879 653.02515,83.791 L598.913408,83.791 Z M633.320594,68.944 C633.421643,68.4389975 633.472167,67.9340025 633.472167,67.429 L633.472167,65.914 C633.472167,62.5809833 632.284853,59.8035111 629.91019,57.5815 C627.535526,55.3594889 624.125157,54.2485 619.678978,54.2485 C616.950641,54.2485 614.500228,54.7282452 612.327663,55.68775 C610.155099,56.6472548 608.260449,57.8339929 606.643656,59.248 C605.026864,60.6620071 603.71324,62.2274914 602.702745,63.9445 C601.69225,65.6615086 600.984914,67.3279919 600.580716,68.944 L633.320594,68.944 Z M698.648776,50.461 C701.073964,46.7239813 704.3075,43.6435121 708.34948,41.2195 C712.391461,38.7954879 717.039669,37.5835 722.294243,37.5835 C726.538323,37.5835 730.17605,38.1894939 733.207536,39.4015 C736.239021,40.6135061 738.739959,42.2799894 740.710424,44.401 C742.68089,46.5220106 744.120824,48.9712361 745.030269,51.74875 C745.939715,54.5262639 746.394431,57.4299849 746.394431,60.46 C746.394431,61.8740071 746.343907,63.2627432 746.242857,64.62625 C746.141808,65.9897568 745.939712,67.3279934 745.636563,68.641 L737.451594,115 L713.199833,115 L720.323787,74.095 C720.829035,71.7719884 721.081655,69.6510096 721.081655,67.732 C721.081655,64.9039859 720.349057,62.5052598 718.883839,60.53575 C717.418621,58.5662402 714.816635,57.5815 711.077803,57.5815 C708.854714,57.5815 706.859016,58.0107457 705.09065,58.86925 C703.322283,59.7277543 701.75604,60.9144924 700.391871,62.4295 C699.027703,63.9445076 697.916175,65.7119899 697.057254,67.732 C696.198333,69.7520101 695.566783,71.8729889 695.162585,74.095 L690.513689,100.232356 C689.06304,108.388301 681.163795,115 672.890339,115 L663.635295,115 L674.093868,55.1575 C674.498066,53.2384904 674.92752,50.7640152 675.382242,47.734 C675.836965,44.7039848 676.165371,41.9770121 676.36747,39.553 L699.558217,39.553 C699.457167,40.7650061 699.280333,42.4819889 699.02771,44.704 C698.775086,46.9260111 698.547728,48.8449919 698.345629,50.461 L698.648776,50.461 Z M820.817023,90.9115 C822.736964,93.7395141 825.288426,95.8857427 828.471485,97.35025 C831.654545,98.8147573 834.913343,99.547 838.247977,99.547 C841.481561,99.547 844.083547,98.9410061 846.054012,97.729 C848.024478,96.5169939 849.009696,94.8505106 849.009696,92.7295 C849.009696,90.7094899 848.100264,89.1440056 846.281373,88.033 C844.462481,86.9219944 841.78471,85.8110056 838.247977,84.7 C834.711244,83.689995 831.604018,82.5537563 828.926206,81.29125 C826.248394,80.0287437 824.000076,78.5642583 822.181185,76.89775 C820.362294,75.2312417 818.998146,73.3122609 818.0887,71.14075 C817.179255,68.9692391 816.724539,66.4190146 816.724539,63.49 C816.724539,59.3489793 817.659233,55.6625162 819.528648,52.4305 C821.398064,49.1984838 823.87374,46.4462614 826.95575,44.17375 C830.03776,41.9012386 833.650226,40.1842558 837.793256,39.02275 C841.936286,37.8612442 846.28135,37.2805 850.828578,37.2805 C856.689449,37.2805 862.171303,38.2652402 867.274303,40.23475 C872.377304,42.2042598 876.444486,45.1079808 879.475971,48.946 L864.167047,61.8235 C862.752353,59.8034899 860.80718,58.1370066 858.331467,56.824 C855.855754,55.5109934 852.9001,54.8545 849.464416,54.8545 C846.837129,54.8545 844.437239,55.359495 842.264675,56.3695 C840.09211,57.3795051 839.005844,59.0964879 839.005844,61.5205 C839.005844,63.2375086 839.814228,64.5757452 841.43102,65.53525 C843.047813,66.4947548 845.523488,67.4289955 848.858122,68.338 C855.931588,70.2570096 861.51449,72.9082331 865.606995,76.29175 C869.6995,79.6752669 871.745722,84.5989677 871.745722,91.063 C871.745722,95.6080227 870.760504,99.5722331 868.790039,102.95575 C866.819573,106.339267 864.242849,109.116739 861.05979,111.28825 C857.87673,113.459761 854.239002,115.075745 850.146497,116.13625 C846.053992,117.196755 841.885762,117.727 837.641683,117.727 C830.669266,117.727 824.454815,116.565512 818.998141,114.2425 C813.541468,111.919488 809.095356,108.73802 805.659672,104.698 L820.817023,90.9115 Z" id="installments" fill="#FFFFFF"></path>
    </g>
</svg>