<?xml version="1.0" encoding="UTF-8" standalone="no"?>
<svg width="80px" height="80px" viewBox="0 0 80 80" version="1.1" xmlns="http://www.w3.org/2000/svg" xmlns:xlink="http://www.w3.org/1999/xlink">
    <!-- Generator: Sketch 3.8.3 (29802) - http://www.bohemiancoding.com/sketch -->
    <title>specie-fast</title>
    <desc>Created with Sketch.</desc>
    <defs></defs>
    <g id="Page-1" stroke="none" stroke-width="1" fill="none" fill-rule="evenodd">
        <g id="specie-fast" transform="translate(1.000000, 1.000000)" stroke="#333333">
            <circle id="Oval-3-Copy-3" stroke-width="2" cx="39" cy="39" r="39"></circle>
            <path d="M39,74 C58.3299662,74 74,58.3299662 74,39 C74,19.6700338 58.3299662,4 39,4 C19.6700338,4 4,19.6700338 4,39 C4,58.3299662 19.6700338,74 39,74 Z" id="Oval-3-Copy-4" stroke-width="1.5" stroke-dasharray="2,1,2,3"></path>
            <g id="Group-3" transform="translate(40.500000, 39.000000) rotate(-285.000000) translate(-40.500000, -39.000000) translate(32.000000, 30.000000)" stroke-width="2" stroke-linecap="square">
                <path d="M-1.59875776,13.3043478 L6.61863354,13.3043478" id="Line-Copy-5" transform="translate(2.314286, 13.304348) rotate(-450.000000) translate(-2.314286, -13.304348) "></path>
                <path d="M2.4447205,11.2608696 L14.5751553,11.2608696" id="Line-Copy-6" transform="translate(8.314286, 11.260870) rotate(-450.000000) translate(-8.314286, -11.260870) "></path>
                <path d="M5.70559006,9 L23.3142857,9" id="Line-Copy-7" transform="translate(14.314286, 9.000000) rotate(-450.000000) translate(-14.314286, -9.000000) "></path>
            </g>
        </g>
    </g>
</svg>