<?xml version="1.0" encoding="UTF-8" standalone="no"?>
<svg width="167px" height="38px" viewBox="0 0 167 38" version="1.1" xmlns="http://www.w3.org/2000/svg" xmlns:xlink="http://www.w3.org/1999/xlink">
    <!-- Generator: Sketch 3.8.3 (29802) - http://www.bohemiancoding.com/sketch -->
    <title>SeperPay Copy 2</title>
    <desc>Created with Sketch.</desc>
    <defs></defs>
    <g id="Page-1" stroke="none" stroke-width="1" fill="none" fill-rule="evenodd">
        <g id="Artboard-5" transform="translate(-671.000000, -349.000000)" fill="#FFFFFF">
            <path d="M689.9,355.374 C689.703999,355.696002 689.504501,355.930499 689.3015,356.0775 C689.098499,356.224501 688.836002,356.298 688.514,356.298 C688.205998,356.298 687.873502,356.189501 687.5165,355.9725 C687.159498,355.755499 686.743002,355.521001 686.267,355.269 C685.790998,355.016999 685.245003,354.782501 684.629,354.5655 C684.012997,354.348499 683.292004,354.24 682.466,354.24 C681.009993,354.24 679.918004,354.565497 679.19,355.2165 C678.461996,355.867503 678.098,356.717995 678.098,357.768 C678.098,358.440003 678.297498,358.996498 678.6965,359.4375 C679.095502,359.878502 679.620497,360.259998 680.2715,360.582 C680.922503,360.904002 681.660996,361.190999 682.487,361.443 C683.313004,361.695001 684.159996,361.971498 685.028,362.2725 C685.896004,362.573502 686.742996,362.926998 687.569,363.333 C688.395004,363.739002 689.133497,364.249997 689.7845,364.866 C690.435503,365.482003 690.960498,366.234496 691.3595,367.1235 C691.758502,368.012504 691.958,369.093994 691.958,370.368 C691.958,371.754007 691.716502,373.052494 691.2335,374.2635 C690.750498,375.474506 690.054005,376.531495 689.144,377.4345 C688.233995,378.337505 687.110507,379.047997 685.7735,379.566 C684.436493,380.084003 682.921008,380.343 681.227,380.343 C680.260995,380.343 679.298505,380.245001 678.3395,380.049 C677.380495,379.852999 676.456504,379.580002 675.5675,379.23 C674.678496,378.879998 673.842004,378.460002 673.058,377.97 C672.273996,377.479998 671.588003,376.934003 671,376.332 L672.848,373.35 C673.002001,373.125999 673.204999,372.940501 673.457,372.7935 C673.709001,372.646499 673.974999,372.573 674.255,372.573 C674.633002,372.573 675.031998,372.712999 675.452,372.993 C675.872002,373.273001 676.354997,373.580998 676.901,373.917 C677.447003,374.253002 678.080496,374.560999 678.8015,374.841 C679.522504,375.121001 680.386995,375.261 681.395,375.261 C682.865007,375.261 684.002496,374.925003 684.8075,374.253 C685.612504,373.580997 686.015,372.580007 686.015,371.25 C686.015,370.479996 685.815502,369.857002 685.4165,369.381 C685.017498,368.904998 684.496003,368.506002 683.852,368.184 C683.207997,367.861998 682.473004,367.585501 681.647,367.3545 C680.820996,367.123499 679.974004,366.868001 679.106,366.588 C678.237996,366.307999 677.391004,365.972002 676.565,365.58 C675.738996,365.187998 675.004003,364.670003 674.36,364.026 C673.715997,363.381997 673.194502,362.584005 672.7955,361.632 C672.396498,360.679995 672.197,359.497007 672.197,358.083 C672.197,356.948994 672.420998,355.850005 672.869,354.786 C673.317002,353.721995 673.974996,352.777004 674.843,351.951 C675.711004,351.124996 676.778494,350.460003 678.0455,349.956 C679.312506,349.451997 680.764992,349.2 682.403,349.2 C684.237009,349.2 685.934492,349.483497 687.4955,350.0505 C689.056508,350.617503 690.375995,351.404995 691.454,352.413 L689.9,355.374 Z M703.838912,358.02 C705.224918,358.02 706.502406,358.240498 707.671412,358.6815 C708.840417,359.122502 709.848407,359.762996 710.695412,360.603 C711.542416,361.443004 712.200409,362.475494 712.669412,363.7005 C713.138414,364.925506 713.372912,366.321992 713.372912,367.89 C713.372912,368.324002 713.351912,368.680999 713.309912,368.961 C713.267911,369.241001 713.197912,369.464999 713.099912,369.633 C713.001911,369.801001 712.868912,369.9165 712.700912,369.9795 C712.532911,370.0425 712.315913,370.074 712.049912,370.074 L699.050912,370.074 C699.232912,372.10401 699.810407,373.587995 700.783412,374.526 C701.756416,375.464005 703.033904,375.933 704.615912,375.933 C705.413916,375.933 706.103409,375.838501 706.684412,375.6495 C707.265414,375.460499 707.776409,375.250501 708.217412,375.0195 C708.658414,374.788499 709.05741,374.578501 709.414412,374.3895 C709.771413,374.200499 710.12491,374.106 710.474912,374.106 C710.922914,374.106 711.27291,374.273998 711.524912,374.61 L713.204912,376.71 C712.588908,377.424004 711.909915,378.015498 711.167912,378.4845 C710.425908,378.953502 709.655916,379.324499 708.857912,379.5975 C708.059908,379.870501 707.254916,380.059499 706.442912,380.1645 C705.630907,380.269501 704.846915,380.322 704.090912,380.322 C702.578904,380.322 701.168418,380.073502 699.859412,379.5765 C698.550405,379.079498 697.409416,378.344505 696.436412,377.3715 C695.463407,376.398495 694.696914,375.191007 694.136912,373.749 C693.576909,372.306993 693.296912,370.63401 693.296912,368.73 C693.296912,367.259993 693.538409,365.874007 694.021412,364.572 C694.504414,363.269993 695.200907,362.136005 696.110912,361.17 C697.020916,360.203995 698.126905,359.437503 699.428912,358.8705 C700.730918,358.303497 702.200903,358.02 703.838912,358.02 L703.838912,358.02 Z M703.943912,362.094 C702.557905,362.094 701.472915,362.489496 700.688912,363.2805 C699.904908,364.071504 699.393913,365.187993 699.155912,366.63 L708.185912,366.63 C708.185912,366.027997 708.105412,365.454003 707.944412,364.908 C707.783411,364.361997 707.527913,363.879002 707.177912,363.459 C706.82791,363.038998 706.386914,362.706501 705.854912,362.4615 C705.322909,362.216499 704.685915,362.094 703.943912,362.094 L703.943912,362.094 Z M715.677823,387 L715.677823,358.356 L719.247823,358.356 C719.975827,358.356 720.458822,358.691997 720.696823,359.364 L721.137823,361.191 C721.571825,360.714998 722.033821,360.277502 722.523823,359.8785 C723.013826,359.479498 723.53882,359.136501 724.098823,358.8495 C724.658826,358.562499 725.26082,358.338501 725.904823,358.1775 C726.548826,358.016499 727.248819,357.936 728.004823,357.936 C729.166829,357.936 730.234318,358.184498 731.207323,358.6815 C732.180328,359.178502 733.01682,359.899495 733.716823,360.8445 C734.416827,361.789505 734.962821,362.947993 735.354823,364.32 C735.746825,365.692007 735.942823,367.259991 735.942823,369.024 C735.942823,370.648008 735.722325,372.149493 735.281323,373.5285 C734.840321,374.907507 734.213827,376.100995 733.401823,377.109 C732.589819,378.117005 731.613329,378.904497 730.472323,379.4715 C729.331317,380.038503 728.06083,380.322 726.660823,380.322 C725.484817,380.322 724.487327,380.147002 723.668323,379.797 C722.849319,379.446998 722.117826,378.971003 721.473823,378.369 L721.473823,387 L715.677823,387 Z M726.009823,362.451 C724.987818,362.451 724.130327,362.653998 723.437323,363.06 C722.74432,363.466002 722.089826,364.046996 721.473823,364.803 L721.473823,374.295 C722.019826,374.925003 722.61132,375.365999 723.248323,375.618 C723.885326,375.870001 724.567819,375.996 725.295823,375.996 C725.995827,375.996 726.63282,375.863001 727.206823,375.597 C727.780826,375.330999 728.274321,374.914503 728.687323,374.3475 C729.100325,373.780497 729.418822,373.056004 729.642823,372.174 C729.866824,371.291996 729.978823,370.242006 729.978823,369.024 C729.978823,367.819994 729.884324,366.798004 729.695323,365.958 C729.506322,365.117996 729.240325,364.439003 728.897323,363.921 C728.554321,363.402997 728.137826,363.028501 727.647823,362.7975 C727.157821,362.566499 726.611826,362.451 726.009823,362.451 L726.009823,362.451 Z M747.760735,358.02 C749.146742,358.02 750.424229,358.240498 751.593235,358.6815 C752.76224,359.122502 753.77023,359.762996 754.617235,360.603 C755.464239,361.443004 756.122232,362.475494 756.591235,363.7005 C757.060237,364.925506 757.294735,366.321992 757.294735,367.89 C757.294735,368.324002 757.273735,368.680999 757.231735,368.961 C757.189734,369.241001 757.119735,369.464999 757.021735,369.633 C756.923734,369.801001 756.790735,369.9165 756.622735,369.9795 C756.454734,370.0425 756.237736,370.074 755.971735,370.074 L742.972735,370.074 C743.154736,372.10401 743.73223,373.587995 744.705235,374.526 C745.678239,375.464005 746.955727,375.933 748.537735,375.933 C749.335739,375.933 750.025232,375.838501 750.606235,375.6495 C751.187238,375.460499 751.698232,375.250501 752.139235,375.0195 C752.580237,374.788499 752.979233,374.578501 753.336235,374.3895 C753.693236,374.200499 754.046733,374.106 754.396735,374.106 C754.844737,374.106 755.194733,374.273998 755.446735,374.61 L757.126735,376.71 C756.510732,377.424004 755.831738,378.015498 755.089735,378.4845 C754.347731,378.953502 753.577739,379.324499 752.779735,379.5975 C751.981731,379.870501 751.176739,380.059499 750.364735,380.1645 C749.552731,380.269501 748.768738,380.322 748.012735,380.322 C746.500727,380.322 745.090241,380.073502 743.781235,379.5765 C742.472228,379.079498 741.331239,378.344505 740.358235,377.3715 C739.38523,376.398495 738.618737,375.191007 738.058735,373.749 C737.498732,372.306993 737.218735,370.63401 737.218735,368.73 C737.218735,367.259993 737.460232,365.874007 737.943235,364.572 C738.426237,363.269993 739.12273,362.136005 740.032735,361.17 C740.942739,360.203995 742.048728,359.437503 743.350735,358.8705 C744.652741,358.303497 746.122726,358.02 747.760735,358.02 L747.760735,358.02 Z M747.865735,362.094 C746.479728,362.094 745.394739,362.489496 744.610735,363.2805 C743.826731,364.071504 743.315736,365.187993 743.077735,366.63 L752.107735,366.63 C752.107735,366.027997 752.027235,365.454003 751.866235,364.908 C751.705234,364.361997 751.449736,363.879002 751.099735,363.459 C750.749733,363.038998 750.308737,362.706501 749.776735,362.4615 C749.244732,362.216499 748.607738,362.094 747.865735,362.094 L747.865735,362.094 Z M759.599646,380.007 L759.599646,358.356 L763.022646,358.356 C763.610649,358.356 764.016645,358.460999 764.240646,358.671 C764.464647,358.881001 764.625646,359.244997 764.723646,359.763 L765.017646,361.926 C765.70365,360.693994 766.498142,359.721004 767.401146,359.007 C768.304151,358.292996 769.35764,357.936 770.561646,357.936 C771.541651,357.936 772.339643,358.166998 772.955646,358.629 L772.577646,362.913 C772.507646,363.193001 772.399147,363.385499 772.252146,363.4905 C772.105145,363.595501 771.905647,363.648 771.653646,363.648 C771.429645,363.648 771.107648,363.6165 770.687646,363.5535 C770.267644,363.4905 769.875648,363.459 769.511646,363.459 C768.447641,363.459 767.604149,363.749497 766.981146,364.3305 C766.358143,364.911503 765.829648,365.719995 765.395646,366.756 L765.395646,380.007 L759.599646,380.007 Z M780.888558,369.528 L780.888558,380.007 L774.588558,380.007 L774.588558,349.536 L784.878558,349.536 C786.964568,349.536 788.76705,349.780998 790.286058,350.271 C791.805065,350.761002 793.054553,351.443496 794.034558,352.3185 C795.014563,353.193504 795.739055,354.232994 796.208058,355.437 C796.67706,356.641006 796.911558,357.949993 796.911558,359.364 C796.911558,360.862007 796.66656,362.233994 796.176558,363.48 C795.686555,364.726006 794.944563,365.796996 793.950558,366.693 C792.956553,367.589004 791.703565,368.285498 790.191558,368.7825 C788.67955,369.279502 786.908568,369.528 784.878558,369.528 L780.888558,369.528 Z M780.888558,364.698 L784.878558,364.698 C786.852568,364.698 788.298053,364.222005 789.215058,363.27 C790.132062,362.317995 790.590558,361.016008 790.590558,359.364 C790.590558,358.607996 790.475059,357.918503 790.244058,357.2955 C790.013057,356.672497 789.66306,356.140502 789.194058,355.6995 C788.725055,355.258498 788.133561,354.919001 787.419558,354.681 C786.705554,354.442999 785.858563,354.324 784.878558,354.324 L780.888558,354.324 L780.888558,364.698 Z M812.530469,380.007 C811.984466,380.007 811.567971,379.930001 811.280969,379.776 C810.993968,379.621999 810.75947,379.300002 810.577469,378.81 L810.115469,377.445 C809.569466,377.921002 809.040972,378.337498 808.529969,378.6945 C808.018967,379.051502 807.486972,379.352499 806.933969,379.5975 C806.380966,379.842501 805.792972,380.027999 805.169969,380.154 C804.546966,380.280001 803.857473,380.343 803.101469,380.343 C802.149464,380.343 801.281473,380.217001 800.497469,379.965 C799.713465,379.712999 799.037972,379.338502 798.470969,378.8415 C797.903966,378.344498 797.466471,377.725004 797.158469,376.983 C796.850468,376.240996 796.696469,375.387005 796.696469,374.421 C796.696469,373.622996 796.899467,372.828504 797.305469,372.0375 C797.711471,371.246496 798.407964,370.525503 799.394969,369.8745 C800.381974,369.223497 801.697961,368.681002 803.342969,368.247 C804.987977,367.812998 807.049457,367.568 809.527469,367.512 L809.527469,366.399 C809.527469,365.040993 809.240472,364.043503 808.666469,363.4065 C808.092466,362.769497 807.266475,362.451 806.188469,362.451 C805.390465,362.451 804.725472,362.545499 804.193469,362.7345 C803.661467,362.923501 803.195971,363.126499 802.796969,363.3435 C802.397967,363.560501 802.023471,363.763499 801.673469,363.9525 C801.323467,364.141501 800.917472,364.236 800.455469,364.236 C800.049467,364.236 799.709971,364.134501 799.436969,363.9315 C799.163968,363.728499 798.93647,363.487001 798.754469,363.207 L797.725469,361.359 C798.999476,360.210994 800.406462,359.353503 801.946469,358.7865 C803.486477,358.219497 805.15246,357.936 806.944469,357.936 C808.232476,357.936 809.383964,358.145998 810.398969,358.566 C811.413974,358.986002 812.274966,359.570496 812.981969,360.3195 C813.688973,361.068504 814.231467,361.960995 814.609469,362.997 C814.987471,364.033005 815.176469,365.166994 815.176469,366.399 L815.176469,380.007 L812.530469,380.007 Z M804.907469,376.437 C805.859474,376.437 806.692466,376.265502 807.406469,375.9225 C808.120473,375.579498 808.827466,375.051004 809.527469,374.337 L809.527469,370.977 C808.113462,371.033 806.937474,371.151999 805.999469,371.334 C805.061465,371.516001 804.315972,371.743499 803.762969,372.0165 C803.209966,372.289501 802.81797,372.604498 802.586969,372.9615 C802.355968,373.318502 802.240469,373.706998 802.240469,374.127 C802.240469,374.967004 802.474967,375.561998 802.943969,375.912 C803.412972,376.262002 804.067465,376.437 804.907469,376.437 L804.907469,376.437 Z M826.175381,385.824 C825.99338,386.216002 825.772882,386.509999 825.513881,386.706 C825.254879,386.902001 824.845384,387 824.285381,387 L819.980381,387 L824.075381,378.285 L815.381381,358.356 L820.463381,358.356 C820.925383,358.356 821.282379,358.460999 821.534381,358.671 C821.786382,358.881001 821.96838,359.125999 822.080381,359.406 L826.196381,369.759 C826.490382,370.585004 826.74238,371.403996 826.952381,372.216 C827.078381,371.795998 827.21488,371.379502 827.361881,370.9665 C827.508881,370.553498 827.65938,370.144002 827.813381,369.738 L831.635381,359.406 C831.747381,359.097998 831.950379,358.846001 832.244381,358.65 C832.538382,358.453999 832.860379,358.356 833.210381,358.356 L837.851381,358.356 L826.175381,385.824 Z" id="SeperPay-Copy-2"></path>
        </g>
    </g>
</svg>