<?xml version="1.0" encoding="UTF-8" standalone="no"?>
<svg width="1031px" height="180px" viewBox="0 0 1031 180" version="1.1" xmlns="http://www.w3.org/2000/svg" xmlns:xlink="http://www.w3.org/1999/xlink">
    <!-- Generator: Sketch 3.8.3 (29802) - http://www.bohemiancoding.com/sketch -->
    <title>Group</title>
    <desc>Created with Sketch.</desc>
    <defs></defs>
    <g id="Page-1" stroke="none" stroke-width="1" fill="none" fill-rule="evenodd">
        <g id="Group">
            <path d="M0.166580786,177 L13.353476,101.553 L37.7568108,101.553 L24.2667686,177 L0.166580786,177 Z M42.91031,76.2525 C42.91031,78.2725101 42.5566421,80.1409914 41.8492955,81.858 C41.1419489,83.5750086 40.156731,85.1152432 38.8936121,86.47875 C37.6304932,87.8422568 36.1400353,88.9027462 34.4221936,89.66025 C32.7043519,90.4177538 30.834964,90.7965 28.8139738,90.7965 C24.9740924,90.7965 21.8163426,89.6602614 19.3406295,87.38775 C16.8649165,85.1152386 15.6270786,82.2115177 15.6270786,78.6765 C15.6270786,74.5354793 17.0164885,71.0762639 19.7953501,68.29875 C22.5742116,65.5212361 25.9845814,64.1325 30.0265619,64.1325 C33.7653938,64.1325 36.8473576,65.2939884 39.2725459,67.617 C41.6977341,69.9400116 42.91031,72.8184828 42.91031,76.2525 L42.91031,76.2525 Z M79.591099,112.461 C82.0162872,108.723981 85.2498231,105.643512 89.2918035,103.2195 C93.3337839,100.795488 97.9819917,99.5835 103.236566,99.5835 C107.480646,99.5835 111.118373,100.189494 114.149859,101.4015 C117.181344,102.613506 119.682282,104.279989 121.652747,106.401 C123.623213,108.522011 125.063147,110.971236 125.972592,113.74875 C126.882038,116.526264 127.336754,119.429985 127.336754,122.46 C127.336754,123.874007 127.28623,125.262743 127.18518,126.62625 C127.084131,127.989757 126.882035,129.327993 126.578886,130.641 L118.393917,177 L94.1421557,177 L101.266111,136.095 C101.771358,133.771988 102.023978,131.65101 102.023978,129.732 C102.023978,126.903986 101.29138,124.50526 99.8261623,122.53575 C98.3609444,120.56624 95.7589585,119.5815 92.0201266,119.5815 C89.7970374,119.5815 87.8013395,120.010746 86.0329731,120.86925 C84.2646066,121.727754 82.6983627,122.914492 81.3341943,124.4295 C79.9700259,125.944508 78.858498,127.71199 77.9995771,129.732 C77.1406563,131.75201 76.5091063,133.872989 76.1049083,136.095 L68.8293799,177 L44.5776186,177 L55.0361907,117.1575 C55.4403887,115.23849 55.8698427,112.764015 56.3245655,109.734 C56.7792883,106.703985 57.1076943,103.977012 57.3097933,101.553 L80.50054,101.553 C80.3994905,102.765006 80.2226565,104.481989 79.9700328,106.704 C79.717409,108.926011 79.490051,110.844992 79.287952,112.461 L79.591099,112.461 Z M146.58659,152.9115 C148.50653,155.739514 151.057992,157.885743 154.241052,159.35025 C157.424111,160.814757 160.682909,161.547 164.017543,161.547 C167.251127,161.547 169.853113,160.941006 171.823579,159.729 C173.794044,158.516994 174.779262,156.850511 174.779262,154.7295 C174.779262,152.70949 173.86983,151.144006 172.050939,150.033 C170.232048,148.921994 167.554276,147.811006 164.017543,146.7 C160.48081,145.689995 157.373584,144.553756 154.695772,143.29125 C152.01796,142.028744 149.769642,140.564258 147.950751,138.89775 C146.13186,137.231242 144.767712,135.312261 143.858266,133.14075 C142.948821,130.969239 142.494105,128.419015 142.494105,125.49 C142.494105,121.348979 143.428799,117.662516 145.298215,114.4305 C147.167631,111.198484 149.643307,108.446261 152.725317,106.17375 C155.807327,103.901239 159.419792,102.184256 163.562822,101.02275 C167.705852,99.8612442 172.050916,99.2805 176.598144,99.2805 C182.459016,99.2805 187.940869,100.26524 193.04387,102.23475 C198.14687,104.20426 202.214052,107.107981 205.245537,110.946 L189.936613,123.8235 C188.52192,121.80349 186.576746,120.137007 184.101033,118.824 C181.62532,117.510993 178.669666,116.8545 175.233983,116.8545 C172.606695,116.8545 170.206805,117.359495 168.034241,118.3695 C165.861676,119.379505 164.77541,121.096488 164.77541,123.5205 C164.77541,125.237509 165.583794,126.575745 167.200587,127.53525 C168.817379,128.494755 171.293055,129.428995 174.627689,130.338 C181.701154,132.25701 187.284056,134.908233 191.376561,138.29175 C195.469066,141.675267 197.515288,146.598968 197.515288,153.063 C197.515288,157.608023 196.53007,161.572233 194.559605,164.95575 C192.589139,168.339267 190.012415,171.116739 186.829356,173.28825 C183.646296,175.459761 180.008568,177.075745 175.916063,178.13625 C171.823558,179.196755 167.655328,179.727 163.411249,179.727 C156.438833,179.727 150.224381,178.565512 144.767707,176.2425 C139.311034,173.919488 134.864922,170.73802 131.429239,166.698 L146.58659,152.9115 Z M208.125434,119.8845 L211.460051,101.553 L223.434358,101.553 L226.920549,87.555 L252.066744,74.055 L247.079825,101.553 L263.146617,101.553 L259.812,119.8845 L244.199929,119.8845 L238.743282,149.427 C238.642233,150.134004 238.566447,150.866246 238.515922,151.62375 C238.465397,152.381254 238.440135,153.012497 238.440135,153.5175 C238.440135,156.042513 239.147471,157.759495 240.562164,158.6685 C241.976858,159.577505 243.89677,160.032 246.321958,160.032 C247.534552,160.032 248.721866,159.931001 249.883935,159.729 C251.046005,159.526999 252.081747,159.325001 252.991192,159.123 L250.71759,176.5455 C249.302896,177.151503 247.307198,177.681748 244.730436,178.13625 C242.153673,178.590752 239.70326,178.818 237.379121,178.818 C230.103556,178.818 224.369082,177.353515 220.175528,174.4245 C215.981973,171.495485 213.885227,166.849532 213.885227,160.4865 C213.885227,159.274494 213.961013,157.885758 214.112587,156.32025 C214.264162,154.754742 214.49152,153.265007 214.794668,151.851 L220.554461,119.8845 L208.125434,119.8845 Z M759.534849,120.2955 L762.869466,101.964 L774.843773,101.964 L778.329964,87.966 L803.476159,74.466 L798.48924,101.964 L814.556032,101.964 L811.221415,120.2955 L795.609344,120.2955 L790.152697,149.838 C790.051648,150.545004 789.975862,151.277246 789.925337,152.03475 C789.874812,152.792254 789.84955,153.423497 789.84955,153.9285 C789.84955,156.453513 790.556886,158.170495 791.971579,159.0795 C793.386272,159.988505 795.306184,160.443 797.731373,160.443 C798.943967,160.443 800.131281,160.342001 801.29335,160.14 C802.455419,159.937999 803.491161,159.736001 804.400607,159.534 L802.127004,176.9565 C800.712311,177.562503 798.716613,178.092748 796.139851,178.54725 C793.563088,179.001752 791.112674,179.229 788.788536,179.229 C781.512971,179.229 775.778497,177.764515 771.584943,174.8355 C767.391388,171.906485 765.294642,167.260532 765.294642,160.8975 C765.294642,159.685494 765.370428,158.296758 765.522002,156.73125 C765.673576,155.165742 765.900934,153.676007 766.204083,152.262 L771.963876,120.2955 L759.534849,120.2955 Z M338.02393,123.672 C338.02393,125.086007 337.948144,126.600992 337.79657,128.217 C337.644996,129.833008 337.417638,131.398492 337.114489,132.9135 L331.96099,162.3045 C331.455742,164.930513 331.076812,167.606986 330.824189,170.334 C330.571565,173.061014 330.445255,175.282991 330.445255,177 L308.921817,177 C308.921817,175.888994 308.972341,174.601257 309.07339,173.13675 C309.17444,171.672243 309.326012,170.283507 309.528111,168.9705 L309.224964,168.9705 C303.667241,175.535533 295.987593,178.818 286.18579,178.818 C283.558503,178.818 280.855469,178.489753 278.076608,177.83325 C275.297746,177.176747 272.771546,176.065758 270.497932,174.50025 C268.224318,172.934742 266.380192,170.864263 264.965499,168.28875 C263.550806,165.713237 262.84347,162.557019 262.84347,158.82 C262.84347,152.75997 264.35919,147.811019 267.390675,143.973 C270.422161,140.134981 274.388295,137.155511 279.289196,135.0345 C284.190097,132.913489 289.747737,131.449004 295.962282,130.641 C302.176827,129.832996 308.41654,129.429 314.68161,129.429 C314.883709,128.519995 314.984757,127.813003 314.984757,127.308 L314.984757,125.9445 C314.984757,123.015485 313.949015,120.869257 311.8775,119.50575 C309.805985,118.142243 306.900855,117.4605 303.162023,117.4605 C299.72634,117.4605 296.265446,118.116993 292.779238,119.43 C289.29303,120.743007 286.13528,122.459989 283.305894,124.581 L273.302042,110.643 C277.84927,107.006982 283.078504,104.20426 288.9899,102.23475 C294.901297,100.26524 300.736818,99.2805 306.49664,99.2805 C311.043868,99.2805 315.23736,99.7602452 319.077242,100.71975 C322.917123,101.679255 326.226445,103.16899 329.005306,105.189 C331.784168,107.20901 333.981962,109.733985 335.598754,112.764 C337.215546,115.794015 338.02393,119.429979 338.02393,123.672 L338.02393,123.672 Z M311.195419,143.973 C308.163934,143.973 305.08197,144.099249 301.949435,144.35175 C298.8169,144.604251 296.012819,145.134496 293.537106,145.9425 C291.061393,146.750504 289.015171,147.861493 287.398378,149.2755 C285.781586,150.689507 284.973202,152.557988 284.973202,154.881 C284.973202,157.911015 286.008944,159.956245 288.080459,161.01675 C290.151974,162.077255 292.450816,162.6075 294.977054,162.6075 C299.625331,162.6075 303.515679,161.168264 306.648214,158.28975 C309.780749,155.411236 311.751185,151.851021 312.559581,147.609 L313.317448,143.973 L311.195419,143.973 Z M348.027782,177 L368.187058,62.466 L392.89354,62.466 L372.58269,177 L348.027782,177 Z M392.741967,177 L412.901243,62.466 L437.607725,62.466 L417.296875,177 L392.741967,177 Z M447.914723,117.1575 C448.318921,115.23849 448.748375,112.764015 449.203098,109.734 C449.657821,106.703985 449.986227,103.977012 450.188326,101.553 L473.379073,101.553 C473.278023,102.765006 473.101189,104.507239 472.848566,106.77975 C472.595942,109.052261 472.368584,110.945992 472.166485,112.461 L472.469632,112.461 C473.581176,110.844992 474.8948,109.254258 476.410543,107.68875 C477.926286,106.123242 479.61884,104.734506 481.488255,103.5225 C483.357671,102.310494 485.454417,101.351004 487.778556,100.644 C490.102695,99.9369965 492.628895,99.5835 495.357231,99.5835 C501.319153,99.5835 506.09367,100.820738 509.680928,103.29525 C513.268186,105.769762 515.769123,108.97648 517.183817,112.9155 C520.114252,108.97648 523.600408,105.769762 527.642389,103.29525 C531.684369,100.820738 536.534673,99.5835 542.193445,99.5835 C546.538574,99.5835 550.27735,100.239993 553.409885,101.553 C556.54242,102.866007 559.144406,104.633489 561.215921,106.8555 C563.287436,109.077511 564.803156,111.627736 565.763126,114.50625 C566.723096,117.384764 567.203074,120.338985 567.203074,123.369 C567.203074,124.581006 567.15255,125.792994 567.051501,127.005 C566.950451,128.217006 566.798879,129.378494 566.59678,130.4895 L558.260237,177 L534.008476,177 L541.132431,136.095 C541.637678,133.771988 541.890298,131.65101 541.890298,129.732 C541.890298,126.802985 541.132438,124.35376 539.616696,122.38425 C538.100953,120.41474 535.574753,119.43 532.03802,119.43 C529.915981,119.43 527.996069,119.909745 526.278227,120.86925 C524.560385,121.828755 523.044665,123.091242 521.731022,124.65675 C520.417378,126.222258 519.356374,128.04024 518.547978,130.11075 C517.739582,132.18126 517.133294,134.276989 516.729096,136.398 L509.605141,177 L485.201806,177 L492.780482,133.8225 C493.08363,132.307492 493.235202,130.893507 493.235202,129.5805 C493.235202,126.651485 492.502604,124.22751 491.037386,122.3085 C489.572169,120.38949 487.273327,119.43 484.140792,119.43 C479.997762,119.43 476.637916,121.071234 474.061154,124.35375 C471.484391,127.636266 469.791837,131.549977 468.983441,136.095 L461.707913,177 L437.456151,177 L447.914723,117.1575 Z M601.913408,145.791 C601.812358,146.195002 601.761834,146.649497 601.761834,147.1545 C601.761834,149.275511 602.241812,151.169242 603.201782,152.83575 C604.161753,154.502258 605.424853,155.916244 606.99112,157.07775 C608.557388,158.239256 610.325727,159.122997 612.296193,159.729 C614.266658,160.335003 616.31288,160.638 618.43492,160.638 C622.274801,160.638 625.659909,159.931007 628.590345,158.517 C631.520781,157.102993 634.148029,155.184012 636.472167,152.76 L651.781092,164.7285 C646.930715,169.879526 641.524647,173.591239 635.562726,175.86375 C629.600805,178.136261 623.184258,179.2725 616.312891,179.2725 C611.058316,179.2725 606.182751,178.540257 601.686047,177.07575 C597.189344,175.611243 593.273734,173.439764 589.9391,170.56125 C586.604467,167.682736 583.977219,164.122521 582.057278,159.8805 C580.137337,155.638479 579.177381,150.790527 579.177381,145.3365 C579.177381,138.872468 580.314171,132.837778 582.587785,127.23225 C584.861399,121.626722 587.993887,116.753521 591.985343,112.6125 C595.976798,108.471479 600.751316,105.214262 606.309039,102.84075 C611.866762,100.467238 617.980166,99.2805 624.649434,99.2805 C629.60086,99.2805 634.122758,99.9874929 638.215263,101.4015 C642.307768,102.815507 645.819186,104.860737 648.749622,107.53725 C651.680057,110.213763 653.953637,113.52148 655.570429,117.4605 C657.187222,121.39952 657.995606,125.944474 657.995606,131.0955 C657.995606,132.913509 657.818772,135.211236 657.465098,137.98875 C657.111425,140.766264 656.631447,143.366988 656.02515,145.791 L601.913408,145.791 Z M636.320594,130.944 C636.421643,130.438997 636.472167,129.934003 636.472167,129.429 L636.472167,127.914 C636.472167,124.580983 635.284853,121.803511 632.91019,119.5815 C630.535526,117.359489 627.125157,116.2485 622.678978,116.2485 C619.950641,116.2485 617.500228,116.728245 615.327663,117.68775 C613.155099,118.647255 611.260449,119.833993 609.643656,121.248 C608.026864,122.662007 606.71324,124.227491 605.702745,125.9445 C604.69225,127.661509 603.984914,129.327992 603.580716,130.944 L636.320594,130.944 Z M701.648776,112.461 C704.073964,108.723981 707.3075,105.643512 711.34948,103.2195 C715.391461,100.795488 720.039669,99.5835 725.294243,99.5835 C729.538323,99.5835 733.17605,100.189494 736.207536,101.4015 C739.239021,102.613506 741.739959,104.279989 743.710424,106.401 C745.68089,108.522011 747.120824,110.971236 748.030269,113.74875 C748.939715,116.526264 749.394431,119.429985 749.394431,122.46 C749.394431,123.874007 749.343907,125.262743 749.242857,126.62625 C749.141808,127.989757 748.939712,129.327993 748.636563,130.641 L740.451594,177 L716.199833,177 L723.323787,136.095 C723.829035,133.771988 724.081655,131.65101 724.081655,129.732 C724.081655,126.903986 723.349057,124.50526 721.883839,122.53575 C720.418621,120.56624 717.816635,119.5815 714.077803,119.5815 C711.854714,119.5815 709.859016,120.010746 708.09065,120.86925 C706.322283,121.727754 704.75604,122.914492 703.391871,124.4295 C702.027703,125.944508 700.916175,127.71199 700.057254,129.732 C699.198333,131.75201 698.566783,133.872989 698.162585,136.095 L690.887057,177 L666.635295,177 L677.093868,117.1575 C677.498066,115.23849 677.92752,112.764015 678.382242,109.734 C678.836965,106.703985 679.165371,103.977012 679.36747,101.553 L702.558217,101.553 C702.457167,102.765006 702.280333,104.481989 702.02771,106.704 C701.775086,108.926011 701.547728,110.844992 701.345629,112.461 L701.648776,112.461 Z M823.817023,152.9115 C825.736964,155.739514 828.288426,157.885743 831.471485,159.35025 C834.654545,160.814757 837.913343,161.547 841.247977,161.547 C844.481561,161.547 847.083547,160.941006 849.054012,159.729 C851.024478,158.516994 852.009696,156.850511 852.009696,154.7295 C852.009696,152.70949 851.100264,151.144006 849.281373,150.033 C847.462481,148.921994 844.78471,147.811006 841.247977,146.7 C837.711244,145.689995 834.604018,144.553756 831.926206,143.29125 C829.248394,142.028744 827.000076,140.564258 825.181185,138.89775 C823.362294,137.231242 821.998146,135.312261 821.0887,133.14075 C820.179255,130.969239 819.724539,128.419015 819.724539,125.49 C819.724539,121.348979 820.659233,117.662516 822.528648,114.4305 C824.398064,111.198484 826.87374,108.446261 829.95575,106.17375 C833.03776,103.901239 836.650226,102.184256 840.793256,101.02275 C844.936286,99.8612442 849.28135,99.2805 853.828578,99.2805 C859.689449,99.2805 865.171303,100.26524 870.274303,102.23475 C875.377304,104.20426 879.444486,107.107981 882.475971,110.946 L867.167047,123.8235 C865.752353,121.80349 863.80718,120.137007 861.331467,118.824 C858.855754,117.510993 855.9001,116.8545 852.464416,116.8545 C849.837129,116.8545 847.437239,117.359495 845.264675,118.3695 C843.09211,119.379505 842.005844,121.096488 842.005844,123.5205 C842.005844,125.237509 842.814228,126.575745 844.43102,127.53525 C846.047813,128.494755 848.523488,129.428995 851.858122,130.338 C858.931588,132.25701 864.51449,134.908233 868.606995,138.29175 C872.6995,141.675267 874.745722,146.598968 874.745722,153.063 C874.745722,157.608023 873.760504,161.572233 871.790039,164.95575 C869.819573,168.339267 867.242849,171.116739 864.05979,173.28825 C860.87673,175.459761 857.239002,177.075745 853.146497,178.13625 C849.053992,179.196755 844.885762,179.727 840.641683,179.727 C833.669266,179.727 827.454815,178.565512 821.998141,176.2425 C816.541468,173.919488 812.095356,170.73802 808.659672,166.698 L823.817023,152.9115 Z" id="installments" fill="#00538D"></path>
            <path d="M901.356255,106.342894 C905.526237,109.474763 889.150018,124.980812 885.950152,130.161415 C892.907445,135.967758 923.228146,118.034936 927.607334,119.315702 C935.761947,121.700653 944.551081,121.5 953.712518,121.5 C996.397216,121.5 1031,94.7939392 1031,60 C1031,25.2060608 996.397216,0 953.712518,0 C911.027821,0 876.425036,25.2060608 876.425036,60 C876.425036,78.329355 886.027844,94.8304719 901.356255,106.342894 Z" id="Oval-1" fill="#62D1F9"></path>
            <path d="M892.452809,71.34 C892.452809,70.5799962 892.592876,69.8600034 892.873013,69.18 C893.15315,68.4999966 893.543336,67.9100025 894.043581,67.41 C894.543826,66.9099975 895.134106,66.5200014 895.81444,66.24 C896.494773,65.9599986 897.215115,65.82 897.975488,65.82 C898.73586,65.82 899.456202,65.9599986 900.136536,66.24 C900.816869,66.5200014 901.407149,66.9099975 901.907394,67.41 C902.40764,67.9100025 902.797825,68.4999966 903.077962,69.18 C903.358099,69.8600034 903.498166,70.5799962 903.498166,71.34 C903.498166,72.1000038 903.358099,72.8199966 903.077962,73.5 C902.797825,74.1800034 902.40764,74.7699975 901.907394,75.27 C901.407149,75.7700025 900.816869,76.1599986 900.136536,76.44 C899.456202,76.7200014 898.73586,76.86 897.975488,76.86 C897.215115,76.86 896.494773,76.7200014 895.81444,76.44 C895.134106,76.1599986 894.543826,75.7700025 894.043581,75.27 C893.543336,74.7699975 893.15315,74.1800034 892.873013,73.5 C892.592876,72.8199966 892.452809,72.1000038 892.452809,71.34 L892.452809,71.34 Z M927.689898,56.76 C927.249682,56.1199968 926.629388,55.5900021 925.828996,55.17 C925.028603,54.7499979 924.168195,54.54 923.247744,54.54 C920.966626,54.54 919.195785,55.2199932 917.935167,56.58 C916.67455,57.9400068 916.04425,59.719989 916.04425,61.92 C916.04425,64.120011 916.67455,65.8999932 917.935167,67.26 C919.195785,68.6200068 920.966626,69.3 923.247744,69.3 C924.248234,69.3 925.108643,69.0800022 925.828996,68.64 C926.549349,68.1999978 927.169643,67.680003 927.689898,67.08 L933.63278,73.32 C932.232094,74.7600072 930.58131,75.7699971 928.680378,76.35 C926.779447,76.9300029 924.968587,77.22 923.247744,77.22 C921.006646,77.22 918.895643,76.8600036 916.914672,76.14 C914.933702,75.4199964 913.212885,74.3900067 911.752169,73.05 C910.291453,71.7099933 909.140907,70.1000094 908.300495,68.22 C907.460083,66.3399906 907.039884,64.2400116 907.039884,61.92 C907.039884,59.5999884 907.460083,57.5000094 908.300495,55.62 C909.140907,53.7399906 910.291453,52.1300067 911.752169,50.79 C913.212885,49.4499933 914.933702,48.4200036 916.914672,47.7 C918.895643,46.9799964 921.006646,46.62 923.247744,46.62 C924.968587,46.62 926.779447,46.9099971 928.680378,47.49 C930.58131,48.0700029 932.232094,49.0799928 933.63278,50.52 L927.689898,56.76 Z M933.692809,61.92 C933.692809,59.5999884 934.113009,57.5000094 934.953421,55.62 C935.793832,53.7399906 936.944379,52.1300067 938.405095,50.79 C939.86581,49.4499933 941.586628,48.4200036 943.567598,47.7 C945.548569,46.9799964 947.659572,46.62 949.90067,46.62 C952.141768,46.62 954.25277,46.9799964 956.233741,47.7 C958.214712,48.4200036 959.935529,49.4499933 961.396245,50.79 C962.85696,52.1300067 964.007507,53.7399906 964.847919,55.62 C965.68833,57.5000094 966.10853,59.5999884 966.10853,61.92 C966.10853,64.2400116 965.68833,66.3399906 964.847919,68.22 C964.007507,70.1000094 962.85696,71.7099933 961.396245,73.05 C959.935529,74.3900067 958.214712,75.4199964 956.233741,76.14 C954.25277,76.8600036 952.141768,77.22 949.90067,77.22 C947.659572,77.22 945.548569,76.8600036 943.567598,76.14 C941.586628,75.4199964 939.86581,74.3900067 938.405095,73.05 C936.944379,71.7099933 935.793832,70.1000094 934.953421,68.22 C934.113009,66.3399906 933.692809,64.2400116 933.692809,61.92 L933.692809,61.92 Z M942.697176,61.92 C942.697176,64.120011 943.327476,65.8999932 944.588093,67.26 C945.848711,68.6200068 947.619552,69.3 949.90067,69.3 C952.181787,69.3 953.952628,68.6200068 955.213246,67.26 C956.473864,65.8999932 957.104163,64.120011 957.104163,61.92 C957.104163,59.719989 956.473864,57.9400068 955.213246,56.58 C953.952628,55.2199932 952.181787,54.54 949.90067,54.54 C947.619552,54.54 945.848711,55.2199932 944.588093,56.58 C943.327476,57.9400068 942.697176,59.719989 942.697176,61.92 L942.697176,61.92 Z M969.290073,47.34 L977.934265,47.34 L977.934265,51.3 L978.054323,51.3 C978.33446,50.7399972 978.734651,50.1800028 979.254905,49.62 C979.77516,49.0599972 980.395455,48.5600022 981.115808,48.12 C981.836161,47.6799978 982.656551,47.3200014 983.577002,47.04 C984.497452,46.7599986 985.497928,46.62 986.578457,46.62 C988.619457,46.62 990.430317,47.0399958 992.011092,47.88 C993.591866,48.7200042 994.782432,50.039991 995.582824,51.84 C996.623334,49.9599906 997.883932,48.620004 999.364658,47.82 C1000.84538,47.019996 1002.66625,46.62 1004.82731,46.62 C1006.78827,46.62 1008.43905,46.9499967 1009.77971,47.61 C1011.12037,48.2700033 1012.18087,49.1699943 1012.96125,50.31 C1013.74163,51.4500057 1014.3019,52.7899923 1014.64207,54.33 C1014.98223,55.8700077 1015.15231,57.5199912 1015.15231,59.28 L1015.15231,76.5 L1006.14795,76.5 L1006.14795,59.52 C1006.14795,58.1599932 1005.85781,56.9900049 1005.27753,56.01 C1004.69724,55.0299951 1003.66675,54.54 1002.18603,54.54 C1001.14552,54.54 1000.2751,54.7099983 999.57476,55.05 C998.874417,55.3900017 998.314151,55.859997 997.893945,56.46 C997.473739,57.060003 997.173596,57.759996 996.993508,58.56 C996.81342,59.360004 996.723377,60.1999956 996.723377,61.08 L996.723377,76.5 L987.71901,76.5 L987.71901,61.08 C987.71901,60.5599974 987.699001,59.9200038 987.658981,59.16 C987.618962,58.3999962 987.478895,57.6800034 987.238777,57 C986.99866,56.3199966 986.608474,55.7400024 986.06821,55.26 C985.527945,54.7799976 984.73757,54.54 983.69706,54.54 C982.536491,54.54 981.596044,54.7499979 980.875691,55.17 C980.155339,55.5900021 979.605077,56.1499965 979.224891,56.85 C978.844705,57.5500035 978.594586,58.3399956 978.474527,59.22 C978.354468,60.1000044 978.29444,61.0199952 978.29444,61.98 L978.29444,76.5 L969.290073,76.5 L969.290073,47.34 Z" id=".com" fill="#FFFFFF"></path>
        </g>
    </g>
</svg>