<?xml version="1.0" encoding="UTF-8" standalone="no"?>
<svg width="883px" height="118px" viewBox="0 0 883 118" version="1.1" xmlns="http://www.w3.org/2000/svg" xmlns:xlink="http://www.w3.org/1999/xlink">
    <!-- Generator: Sketch 3.8.3 (29802) - http://www.bohemiancoding.com/sketch -->
    <title>Group Copy</title>
    <desc>Created with Sketch.</desc>
    <defs></defs>
    <g id="Page-1" stroke="none" stroke-width="1" fill="none" fill-rule="evenodd">
        <g id="Group-Copy" fill="#00538D">
            <path d="M0.166580786,115 L13.353476,39.553 L37.7568108,39.553 L24.2667686,115 L0.166580786,115 Z M42.91031,14.2525 C42.91031,16.2725101 42.5566421,18.1409914 41.8492955,19.858 C41.1419489,21.5750086 40.156731,23.1152432 38.8936121,24.47875 C37.6304932,25.8422568 36.1400353,26.9027462 34.4221936,27.66025 C32.7043519,28.4177538 30.834964,28.7965 28.8139738,28.7965 C24.9740924,28.7965 21.8163426,27.6602614 19.3406295,25.38775 C16.8649165,23.1152386 15.6270786,20.2115177 15.6270786,16.6765 C15.6270786,12.5354793 17.0164885,9.07626389 19.7953501,6.29875 C22.5742116,3.52123611 25.9845814,2.1325 30.0265619,2.1325 C33.7653938,2.1325 36.8473576,3.29398839 39.2725459,5.617 C41.6977341,7.94001162 42.91031,10.8184828 42.91031,14.2525 L42.91031,14.2525 Z M79.591099,50.461 C82.0162872,46.7239813 85.2498231,43.6435121 89.2918035,41.2195 C93.3337839,38.7954879 97.9819917,37.5835 103.236566,37.5835 C107.480646,37.5835 111.118373,38.1894939 114.149859,39.4015 C117.181344,40.6135061 119.682282,42.2799894 121.652747,44.401 C123.623213,46.5220106 125.063147,48.9712361 125.972592,51.74875 C126.882038,54.5262639 127.336754,57.4299849 127.336754,60.46 C127.336754,61.8740071 127.28623,63.2627432 127.18518,64.62625 C127.084131,65.9897568 126.882035,67.3279934 126.578886,68.641 L118.393917,115 L94.1421557,115 L101.266111,74.095 C101.771358,71.7719884 102.023978,69.6510096 102.023978,67.732 C102.023978,64.9039859 101.29138,62.5052598 99.8261623,60.53575 C98.3609444,58.5662402 95.7589585,57.5815 92.0201266,57.5815 C89.7970374,57.5815 87.8013395,58.0107457 86.0329731,58.86925 C84.2646066,59.7277543 82.6983627,60.9144924 81.3341943,62.4295 C79.9700259,63.9445076 78.858498,65.7119899 77.9995771,67.732 C77.1406563,69.7520101 76.5091063,71.8729889 76.1049083,74.095 L68.8293799,115 L44.5776186,115 L55.0361907,55.1575 C55.4403887,53.2384904 55.8698427,50.7640152 56.3245655,47.734 C56.7792883,44.7039848 57.1076943,41.9770121 57.3097933,39.553 L80.50054,39.553 C80.3994905,40.7650061 80.2226565,42.4819889 79.9700328,44.704 C79.717409,46.9260111 79.490051,48.8449919 79.287952,50.461 L79.591099,50.461 Z M146.58659,90.9115 C148.50653,93.7395141 151.057992,95.8857427 154.241052,97.35025 C157.424111,98.8147573 160.682909,99.547 164.017543,99.547 C167.251127,99.547 169.853113,98.9410061 171.823579,97.729 C173.794044,96.5169939 174.779262,94.8505106 174.779262,92.7295 C174.779262,90.7094899 173.86983,89.1440056 172.050939,88.033 C170.232048,86.9219944 167.554276,85.8110056 164.017543,84.7 C160.48081,83.689995 157.373584,82.5537563 154.695772,81.29125 C152.01796,80.0287437 149.769642,78.5642583 147.950751,76.89775 C146.13186,75.2312417 144.767712,73.3122609 143.858266,71.14075 C142.948821,68.9692391 142.494105,66.4190146 142.494105,63.49 C142.494105,59.3489793 143.428799,55.6625162 145.298215,52.4305 C147.167631,49.1984838 149.643307,46.4462614 152.725317,44.17375 C155.807327,41.9012386 159.419792,40.1842558 163.562822,39.02275 C167.705852,37.8612442 172.050916,37.2805 176.598144,37.2805 C182.459016,37.2805 187.940869,38.2652402 193.04387,40.23475 C198.14687,42.2042598 202.214052,45.1079808 205.245537,48.946 L189.936613,61.8235 C188.52192,59.8034899 186.576746,58.1370066 184.101033,56.824 C181.62532,55.5109934 178.669666,54.8545 175.233983,54.8545 C172.606695,54.8545 170.206805,55.359495 168.034241,56.3695 C165.861676,57.3795051 164.77541,59.0964879 164.77541,61.5205 C164.77541,63.2375086 165.583794,64.5757452 167.200587,65.53525 C168.817379,66.4947548 171.293055,67.4289955 174.627689,68.338 C181.701154,70.2570096 187.284056,72.9082331 191.376561,76.29175 C195.469066,79.6752669 197.515288,84.5989677 197.515288,91.063 C197.515288,95.6080227 196.53007,99.5722331 194.559605,102.95575 C192.589139,106.339267 190.012415,109.116739 186.829356,111.28825 C183.646296,113.459761 180.008568,115.075745 175.916063,116.13625 C171.823558,117.196755 167.655328,117.727 163.411249,117.727 C156.438833,117.727 150.224381,116.565512 144.767707,114.2425 C139.311034,111.919488 134.864922,108.73802 131.429239,104.698 L146.58659,90.9115 Z M208.125434,57.8845 L211.460051,39.553 L223.434358,39.553 L226.920549,25.555 L252.066744,12.055 L247.079825,39.553 L263.146617,39.553 L259.812,57.8845 L244.199929,57.8845 L238.743282,87.427 C238.642233,88.1340035 238.566447,88.8662462 238.515922,89.62375 C238.465397,90.3812538 238.440135,91.0124975 238.440135,91.5175 C238.440135,94.0425126 239.147471,95.7594955 240.562164,96.6685 C241.976858,97.5775045 243.89677,98.032 246.321958,98.032 C247.534552,98.032 248.721866,97.931001 249.883935,97.729 C251.046005,97.526999 252.081747,97.325001 252.991192,97.123 L250.71759,114.5455 C249.302896,115.151503 247.307198,115.681748 244.730436,116.13625 C242.153673,116.590752 239.70326,116.818 237.379121,116.818 C230.103556,116.818 224.369082,115.353515 220.175528,112.4245 C215.981973,109.495485 213.885227,104.849532 213.885227,98.4865 C213.885227,97.2744939 213.961013,95.8857578 214.112587,94.32025 C214.264162,92.7547422 214.49152,91.2650071 214.794668,89.851 L220.554461,57.8845 L208.125434,57.8845 Z M759.534849,58.2955 L762.869466,39.964 L774.843773,39.964 L778.329964,25.966 L803.476159,12.466 L798.48924,39.964 L814.556032,39.964 L811.221415,58.2955 L795.609344,58.2955 L790.152697,87.838 C790.051648,88.5450035 789.975862,89.2772462 789.925337,90.03475 C789.874812,90.7922538 789.84955,91.4234975 789.84955,91.9285 C789.84955,94.4535126 790.556886,96.1704955 791.971579,97.0795 C793.386272,97.9885045 795.306184,98.443 797.731373,98.443 C798.943967,98.443 800.131281,98.342001 801.29335,98.14 C802.455419,97.937999 803.491161,97.736001 804.400607,97.534 L802.127004,114.9565 C800.712311,115.562503 798.716613,116.092748 796.139851,116.54725 C793.563088,117.001752 791.112674,117.229 788.788536,117.229 C781.512971,117.229 775.778497,115.764515 771.584943,112.8355 C767.391388,109.906485 765.294642,105.260532 765.294642,98.8975 C765.294642,97.6854939 765.370428,96.2967578 765.522002,94.73125 C765.673576,93.1657422 765.900934,91.6760071 766.204083,90.262 L771.963876,58.2955 L759.534849,58.2955 Z M338.02393,61.672 C338.02393,63.0860071 337.948144,64.6009919 337.79657,66.217 C337.644996,67.8330081 337.417638,69.3984924 337.114489,70.9135 L331.96099,100.3045 C331.455742,102.930513 331.076812,105.606986 330.824189,108.334 C330.571565,111.061014 330.445255,113.282991 330.445255,115 L308.921817,115 C308.921817,113.888994 308.972341,112.601257 309.07339,111.13675 C309.17444,109.672243 309.326012,108.283507 309.528111,106.9705 L309.224964,106.9705 C303.667241,113.535533 295.987593,116.818 286.18579,116.818 C283.558503,116.818 280.855469,116.489753 278.076608,115.83325 C275.297746,115.176747 272.771546,114.065758 270.497932,112.50025 C268.224318,110.934742 266.380192,108.864263 264.965499,106.28875 C263.550806,103.713237 262.84347,100.557019 262.84347,96.82 C262.84347,90.7599697 264.35919,85.8110192 267.390675,81.973 C270.422161,78.1349808 274.388295,75.1555106 279.289196,73.0345 C284.190097,70.9134894 289.747737,69.449004 295.962282,68.641 C302.176827,67.832996 308.41654,67.429 314.68161,67.429 C314.883709,66.5199955 314.984757,65.8130025 314.984757,65.308 L314.984757,63.9445 C314.984757,61.0154854 313.949015,58.8692568 311.8775,57.50575 C309.805985,56.1422432 306.900855,55.4605 303.162023,55.4605 C299.72634,55.4605 296.265446,56.1169934 292.779238,57.43 C289.29303,58.7430066 286.13528,60.4599894 283.305894,62.581 L273.302042,48.643 C277.84927,45.0069818 283.078504,42.2042598 288.9899,40.23475 C294.901297,38.2652402 300.736818,37.2805 306.49664,37.2805 C311.043868,37.2805 315.23736,37.7602452 319.077242,38.71975 C322.917123,39.6792548 326.226445,41.1689899 329.005306,43.189 C331.784168,45.2090101 333.981962,47.7339849 335.598754,50.764 C337.215546,53.7940152 338.02393,57.4299788 338.02393,61.672 L338.02393,61.672 Z M311.195419,81.973 C308.163934,81.973 305.08197,82.0992487 301.949435,82.35175 C298.8169,82.6042513 296.012819,83.134496 293.537106,83.9425 C291.061393,84.750504 289.015171,85.8614929 287.398378,87.2755 C285.781586,88.6895071 284.973202,90.5579884 284.973202,92.881 C284.973202,95.9110152 286.008944,97.9562447 288.080459,99.01675 C290.151974,100.077255 292.450816,100.6075 294.977054,100.6075 C299.625331,100.6075 303.515679,99.1682644 306.648214,96.28975 C309.780749,93.4112356 311.751185,89.8510212 312.559581,85.609 L313.317448,81.973 L311.195419,81.973 Z M348.027782,115 L368.187058,0.466 L392.89354,0.466 L372.58269,115 L348.027782,115 Z M392.741967,115 L412.901243,0.466 L437.607725,0.466 L417.296875,115 L392.741967,115 Z M447.914723,55.1575 C448.318921,53.2384904 448.748375,50.7640152 449.203098,47.734 C449.657821,44.7039848 449.986227,41.9770121 450.188326,39.553 L473.379073,39.553 C473.278023,40.7650061 473.101189,42.5072386 472.848566,44.77975 C472.595942,47.0522614 472.368584,48.9459924 472.166485,50.461 L472.469632,50.461 C473.581176,48.8449919 474.8948,47.2542578 476.410543,45.68875 C477.926286,44.1232422 479.61884,42.7345061 481.488255,41.5225 C483.357671,40.3104939 485.454417,39.3510035 487.778556,38.644 C490.102695,37.9369965 492.628895,37.5835 495.357231,37.5835 C501.319153,37.5835 506.09367,38.8207376 509.680928,41.29525 C513.268186,43.7697624 515.769123,46.9764803 517.183817,50.9155 C520.114252,46.9764803 523.600408,43.7697624 527.642389,41.29525 C531.684369,38.8207376 536.534673,37.5835 542.193445,37.5835 C546.538574,37.5835 550.27735,38.2399934 553.409885,39.553 C556.54242,40.8660066 559.144406,42.6334889 561.215921,44.8555 C563.287436,47.0775111 564.803156,49.6277356 565.763126,52.50625 C566.723096,55.3847644 567.203074,58.3389849 567.203074,61.369 C567.203074,62.5810061 567.15255,63.7929939 567.051501,65.005 C566.950451,66.2170061 566.798879,67.3784944 566.59678,68.4895 L558.260237,115 L534.008476,115 L541.132431,74.095 C541.637678,71.7719884 541.890298,69.6510096 541.890298,67.732 C541.890298,64.8029854 541.132438,62.3537598 539.616696,60.38425 C538.100953,58.4147402 535.574753,57.43 532.03802,57.43 C529.915981,57.43 527.996069,57.9097452 526.278227,58.86925 C524.560385,59.8287548 523.044665,61.0912422 521.731022,62.65675 C520.417378,64.2222578 519.356374,66.0402396 518.547978,68.11075 C517.739582,70.1812604 517.133294,72.2769894 516.729096,74.398 L509.605141,115 L485.201806,115 L492.780482,71.8225 C493.08363,70.3074924 493.235202,68.8935066 493.235202,67.5805 C493.235202,64.6514854 492.502604,62.2275096 491.037386,60.3085 C489.572169,58.3894904 487.273327,57.43 484.140792,57.43 C479.997762,57.43 476.637916,59.0712336 474.061154,62.35375 C471.484391,65.6362664 469.791837,69.5499773 468.983441,74.095 L461.707913,115 L437.456151,115 L447.914723,55.1575 Z M601.913408,83.791 C601.812358,84.195002 601.761834,84.6494975 601.761834,85.1545 C601.761834,87.2755106 602.241812,89.1692417 603.201782,90.83575 C604.161753,92.5022583 605.424853,93.9162442 606.99112,95.07775 C608.557388,96.2392558 610.325727,97.122997 612.296193,97.729 C614.266658,98.335003 616.31288,98.638 618.43492,98.638 C622.274801,98.638 625.659909,97.9310071 628.590345,96.517 C631.520781,95.1029929 634.148029,93.1840121 636.472167,90.76 L651.781092,102.7285 C646.930715,107.879526 641.524647,111.591239 635.562726,113.86375 C629.600805,116.136261 623.184258,117.2725 616.312891,117.2725 C611.058316,117.2725 606.182751,116.540257 601.686047,115.07575 C597.189344,113.611243 593.273734,111.439764 589.9391,108.56125 C586.604467,105.682736 583.977219,102.122521 582.057278,97.8805 C580.137337,93.6384788 579.177381,88.7905273 579.177381,83.3365 C579.177381,76.8724677 580.314171,70.837778 582.587785,65.23225 C584.861399,59.626722 587.993887,54.7535207 591.985343,50.6125 C595.976798,46.4714793 600.751316,43.2142619 606.309039,40.84075 C611.866762,38.4672381 617.980166,37.2805 624.649434,37.2805 C629.60086,37.2805 634.122758,37.9874929 638.215263,39.4015 C642.307768,40.8155071 645.819186,42.8607366 648.749622,45.53725 C651.680057,48.2137634 653.953637,51.5214803 655.570429,55.4605 C657.187222,59.3995197 657.995606,63.9444742 657.995606,69.0955 C657.995606,70.9135091 657.818772,73.2112361 657.465098,75.98875 C657.111425,78.7662639 656.631447,81.3669879 656.02515,83.791 L601.913408,83.791 Z M636.320594,68.944 C636.421643,68.4389975 636.472167,67.9340025 636.472167,67.429 L636.472167,65.914 C636.472167,62.5809833 635.284853,59.8035111 632.91019,57.5815 C630.535526,55.3594889 627.125157,54.2485 622.678978,54.2485 C619.950641,54.2485 617.500228,54.7282452 615.327663,55.68775 C613.155099,56.6472548 611.260449,57.8339929 609.643656,59.248 C608.026864,60.6620071 606.71324,62.2274914 605.702745,63.9445 C604.69225,65.6615086 603.984914,67.3279919 603.580716,68.944 L636.320594,68.944 Z M701.648776,50.461 C704.073964,46.7239813 707.3075,43.6435121 711.34948,41.2195 C715.391461,38.7954879 720.039669,37.5835 725.294243,37.5835 C729.538323,37.5835 733.17605,38.1894939 736.207536,39.4015 C739.239021,40.6135061 741.739959,42.2799894 743.710424,44.401 C745.68089,46.5220106 747.120824,48.9712361 748.030269,51.74875 C748.939715,54.5262639 749.394431,57.4299849 749.394431,60.46 C749.394431,61.8740071 749.343907,63.2627432 749.242857,64.62625 C749.141808,65.9897568 748.939712,67.3279934 748.636563,68.641 L740.451594,115 L716.199833,115 L723.323787,74.095 C723.829035,71.7719884 724.081655,69.6510096 724.081655,67.732 C724.081655,64.9039859 723.349057,62.5052598 721.883839,60.53575 C720.418621,58.5662402 717.816635,57.5815 714.077803,57.5815 C711.854714,57.5815 709.859016,58.0107457 708.09065,58.86925 C706.322283,59.7277543 704.75604,60.9144924 703.391871,62.4295 C702.027703,63.9445076 700.916175,65.7119899 700.057254,67.732 C699.198333,69.7520101 698.566783,71.8729889 698.162585,74.095 L690.887057,115 L666.635295,115 L677.093868,55.1575 C677.498066,53.2384904 677.92752,50.7640152 678.382242,47.734 C678.836965,44.7039848 679.165371,41.9770121 679.36747,39.553 L702.558217,39.553 C702.457167,40.7650061 702.280333,42.4819889 702.02771,44.704 C701.775086,46.9260111 701.547728,48.8449919 701.345629,50.461 L701.648776,50.461 Z M823.817023,90.9115 C825.736964,93.7395141 828.288426,95.8857427 831.471485,97.35025 C834.654545,98.8147573 837.913343,99.547 841.247977,99.547 C844.481561,99.547 847.083547,98.9410061 849.054012,97.729 C851.024478,96.5169939 852.009696,94.8505106 852.009696,92.7295 C852.009696,90.7094899 851.100264,89.1440056 849.281373,88.033 C847.462481,86.9219944 844.78471,85.8110056 841.247977,84.7 C837.711244,83.689995 834.604018,82.5537563 831.926206,81.29125 C829.248394,80.0287437 827.000076,78.5642583 825.181185,76.89775 C823.362294,75.2312417 821.998146,73.3122609 821.0887,71.14075 C820.179255,68.9692391 819.724539,66.4190146 819.724539,63.49 C819.724539,59.3489793 820.659233,55.6625162 822.528648,52.4305 C824.398064,49.1984838 826.87374,46.4462614 829.95575,44.17375 C833.03776,41.9012386 836.650226,40.1842558 840.793256,39.02275 C844.936286,37.8612442 849.28135,37.2805 853.828578,37.2805 C859.689449,37.2805 865.171303,38.2652402 870.274303,40.23475 C875.377304,42.2042598 879.444486,45.1079808 882.475971,48.946 L867.167047,61.8235 C865.752353,59.8034899 863.80718,58.1370066 861.331467,56.824 C858.855754,55.5109934 855.9001,54.8545 852.464416,54.8545 C849.837129,54.8545 847.437239,55.359495 845.264675,56.3695 C843.09211,57.3795051 842.005844,59.0964879 842.005844,61.5205 C842.005844,63.2375086 842.814228,64.5757452 844.43102,65.53525 C846.047813,66.4947548 848.523488,67.4289955 851.858122,68.338 C858.931588,70.2570096 864.51449,72.9082331 868.606995,76.29175 C872.6995,79.6752669 874.745722,84.5989677 874.745722,91.063 C874.745722,95.6080227 873.760504,99.5722331 871.790039,102.95575 C869.819573,106.339267 867.242849,109.116739 864.05979,111.28825 C860.87673,113.459761 857.239002,115.075745 853.146497,116.13625 C849.053992,117.196755 844.885762,117.727 840.641683,117.727 C833.669266,117.727 827.454815,116.565512 821.998141,114.2425 C816.541468,111.919488 812.095356,108.73802 808.659672,104.698 L823.817023,90.9115 Z" id="installments"></path>
        </g>
    </g>
</svg>