<?xml version="1.0" encoding="UTF-8" standalone="no"?>
<svg width="78px" height="88px" viewBox="0 0 78 88" version="1.1" xmlns="http://www.w3.org/2000/svg" xmlns:xlink="http://www.w3.org/1999/xlink">
    <!-- Generator: Sketch 3.8.3 (29802) - http://www.bohemiancoding.com/sketch -->
    <title>specie-trans</title>
    <desc>Created with Sketch.</desc>
    <defs></defs>
    <g id="Page-1" stroke="none" stroke-width="1" fill="none" fill-rule="evenodd">
        <g id="specie-trans">
            <path d="M76.647675,21.58845 L39.476775,0.127725 C39.18135,-0.0429 38.81865,-0.0429 38.52225,0.127725 L1.352325,21.58845 C1.0569,21.759075 0.87555,22.074 0.87555,22.414275 L0.87555,65.33475 C0.87555,65.67795 1.0569,65.9919 1.352325,66.16155 L38.523225,87.62325 C38.671425,87.708075 38.835225,87.75 39,87.75 C39.164775,87.75 39.32955,87.708075 39.476775,87.622275 L76.645725,66.160575 C76.942125,65.990925 77.123475,65.675025 77.123475,65.333775 L77.123475,22.414275 C77.12445,22.074 76.9431,21.759075 76.647675,21.58845 L76.647675,21.58845 Z M2.783625,64.625925 L2.783625,24.0669 L37.908,44.345925 L38.04645,44.587725 L38.04645,85.14675 L2.9211,64.863825 L2.783625,64.625925 L2.783625,64.625925 Z M39.139425,2.13525 L74.262825,22.414275 L39.137475,42.694275 L38.86155,42.694275 L3.7362,22.414275 L38.86155,2.13525 L39.139425,2.13525 L39.139425,2.13525 Z M39.954525,44.585775 L40.09395,44.3469 L75.216375,24.067875 L75.216375,64.6269 L75.077925,64.865775 L39.954525,85.143825 L39.954525,44.585775 L39.954525,44.585775 Z" id="Shape" fill="#333333"></path>
            <path d="M38.285325,37.922625 L39.71565,37.922625 L39.71565,40.30845 L38.285325,40.30845 L38.285325,37.922625 Z M38.285325,18.836025 L39.71565,18.836025 L39.71565,21.22185 L38.285325,21.22185 L38.285325,18.836025 Z M38.285325,33.150975 L39.71565,33.150975 L39.71565,35.5368 L38.285325,35.5368 L38.285325,33.150975 Z M38.285325,23.607675 L39.71565,23.607675 L39.71565,25.9935 L38.285325,25.9935 L38.285325,23.607675 Z M38.285325,4.521075 L39.71565,4.521075 L39.71565,6.9069 L38.285325,6.9069 L38.285325,4.521075 Z M38.285325,9.292725 L39.71565,9.292725 L39.71565,11.67855 L38.285325,11.67855 L38.285325,9.292725 Z M38.285325,14.064375 L39.71565,14.064375 L39.71565,16.4502 L38.285325,16.4502 L38.285325,14.064375 Z M38.285325,28.379325 L39.71565,28.379325 L39.71565,30.76515 L38.285325,30.76515 L38.285325,28.379325 Z M25.9367813,52.2404951 L25.2212745,51.0008462 L27.2876375,49.8081723 L28.0031444,51.0478212 L25.9367813,52.2404951 Z M21.8095645,54.6261038 L21.094545,53.3872993 L23.1609081,52.1946254 L23.8759275,53.4334299 L21.8095645,54.6261038 Z M17.6722152,57.0104908 L16.9572543,55.7728167 L19.0239844,54.5789393 L19.7389453,55.8166135 L17.6722152,57.0104908 Z M34.1982679,47.4719068 L33.4831905,46.2321148 L35.5497921,45.0401566 L36.2648696,46.2799487 L34.1982679,47.4719068 Z M30.0690001,49.8543959 L29.3540392,48.6167217 L31.4207693,47.4228443 L32.1357302,48.6605185 L30.0690001,49.8543959 Z M5.27685707,64.1696408 L4.56140851,62.9311224 L6.62729437,61.7377327 L7.34274294,62.9762511 L5.27685707,64.1696408 Z M13.5369663,59.3938137 L12.8222913,58.1559966 L14.8884158,56.9630841 L15.6030908,58.2009012 L13.5369663,59.3938137 Z M9.41335083,61.7855246 L8.69833136,60.5467201 L10.7646944,59.3540462 L11.4797139,60.5928507 L9.41335083,61.7855246 Z M56.1972937,54.6291506 L54.1311693,53.4362381 L54.8463318,52.1975766 L56.9124562,53.3904891 L56.1972937,54.6291506 Z M47.9306231,49.8540035 L45.8661873,48.6618276 L46.5819804,47.4223218 L48.6464162,48.6144977 L47.9306231,49.8540035 Z M52.0618188,52.2356356 L49.9949786,51.0436775 L50.7100561,49.8037423 L52.7768962,50.9957004 L52.0618188,52.2356356 Z M70.6666034,62.9757919 L71.382338,61.7374165 L73.4488295,62.9317712 L72.7330949,64.1701466 L70.6666034,62.9757919 Z M43.8012116,47.4713289 L41.7347202,46.2772129 L42.449824,45.0396817 L44.5163154,46.2337977 L43.8012116,47.4713289 Z M64.455575,59.3995562 L62.3890835,58.2054401 L63.1041873,56.9679089 L65.1706788,58.1620249 L64.455575,59.3995562 Z M68.5959242,61.7861322 L66.5297997,60.5932197 L67.2444747,59.3554026 L69.3105992,60.5483151 L68.5959242,61.7861322 Z M60.3311497,57.0139253 L58.2645481,55.8217285 L58.9792815,54.582781 L61.0458831,55.7749778 L60.3311497,57.0139253 Z" id="Combined-Shape" fill="#000000"></path>
        </g>
    </g>
</svg>
